<svg id="Layer_1" data-name="Layer 1" xmlns="http://www.w3.org/2000/svg" width="40" height="40" viewBox="0 0 40 40"><g id="creative_idea" data-name="creative idea"><path d="M21.40028,33.73822H30.625V30.231l1.595-1.63367h2.21067l1.76561-1.11386V22.5h3.20964L37.5495,16.87484l-.59405-3.12337L35.099,9.81024S30.84162,4.74348,26.25,5.64319A21.858,21.858,0,0,0,19.40633,7.9538s-3.837,2.005-4.43108,7.797S20,27.78052,20,27.78052L21.154,29.934Z" fill="#f2b705"/><path d="M26.25,2.5a.625.625,0,0,1-.625-.625V.625a.625.625,0,0,1,1.25,0v1.25A.625.625,0,0,1,26.25,2.5Z" fill="#252525"/><path d="M36.82131,6.71021a.625.625,0,0,1-.433-1.07575l.91949-.88379a.62506.62506,0,0,1,.86609.90149l-.91949.88379A.62349.62349,0,0,1,36.82131,6.71021Z" fill="#252525"/><path d="M31.97085,3.59436a.62551.62551,0,0,1-.57373-.8728l.49774-1.15479a.62512.62512,0,1,1,1.14807.495l-.49774,1.15478A.62562.62562,0,0,1,31.97085,3.59436Z" fill="#252525"/><path d="M20.52919,3.59436a.62541.62541,0,0,1-.57434-.37811l-.49744-1.15479a.625.625,0,1,1,1.14807-.49438l.49744,1.15478a.62564.62564,0,0,1-.57373.8725Z" fill="#252525"/><path d="M39.97,22.3l-1.85-5.53a11.86873,11.86873,0,0,0-23.24-3.3,11.103,11.103,0,0,0-.35,1.54,11.50593,11.50593,0,0,0-.15,1.87c0,3.88,2.35,7.51,4.89,10.86a9.19358,9.19358,0,0,1,1.2,2.88H18.13A8.13308,8.13308,0,0,1,10,22.5a7.824,7.824,0,0,1,.63-3.11c.06-.16.13-.32.2-.47a7.436,7.436,0,0,1,.72-1.29.61716.61716,0,0,0-.25-.64.62512.62512,0,0,0-.87.15,11.03342,11.03342,0,0,0-.73,1.23l-.09.21a9.22675,9.22675,0,0,0-.86,3.92,9.35723,9.35723,0,0,0,3.08,6.94,10.33591,10.33591,0,0,0,1.16.91H13a9.27054,9.27054,0,0,0,5.13,1.53h2.6l.26,1.31.01.02a.37035.37035,0,0,0-.14.07.31767.31767,0,0,0-.1.1.659.659,0,0,0-.12.27l-.01.13v2.31a.32481.32481,0,0,1,0,.16A3.75136,3.75136,0,0,0,24.38,40H27.5a3.75136,3.75136,0,0,0,3.75-3.75.32481.32481,0,0,1,0-.16V32.36a8.31722,8.31722,0,0,1,.25-2.04,1.24081,1.24081,0,0,1,1.21-.94h1.04a3.14118,3.14118,0,0,0,3.13-3.13V23.12h2.5a.61589.61589,0,0,0,.5-.25A.64722.64722,0,0,0,39.97,22.3ZM30,36.25a2.50091,2.50091,0,0,1-2.5,2.5H24.38a2.50091,2.50091,0,0,1-2.5-2.5.32512.32512,0,0,1,0-.16V34.38H30v1.71a.32481.32481,0,0,1,0,.16Zm6.25-14.37a.61053.61053,0,0,0-.62.62v3.75a1.88215,1.88215,0,0,1-1.88,1.87H32.71a2.49093,2.49093,0,0,0-2.42,1.9A9.67626,9.67626,0,0,0,30,32.36v.77H22.25a.27674.27674,0,0,0-.01-.09l-.36-1.85v.06a.59005.59005,0,0,1-.02.14.75569.75569,0,0,0,0-.26.09022.09022,0,0,0-.01-.05.43162.43162,0,0,1-.00995-.05l-.01-.05-.03-.15c-.01-.04-.02-.08-.03-.13a10.93668,10.93668,0,0,0-1.5-3.72c-2.41-3.17-4.64-6.59-4.64-10.1a10.863,10.863,0,0,1,.28-2.44A12.47091,12.47091,0,0,1,16.34,13.05a10.6264,10.6264,0,0,1,20.54,3.83.62918.62918,0,0,0,.03.19l1.6,4.81Z" fill="#252525"/><path d="M18.125,40h-2.5a1.877,1.877,0,0,1-1.875-1.875v-.5249a.62309.62309,0,0,0-.38574-.57739l-3.20893-1.32935a.62483.62483,0,0,0-.68115.1358L9.10309,36.2a1.9195,1.9195,0,0,1-2.65167,0L3.80005,33.54828a1.87467,1.87467,0,0,1,0-2.65167l.3711-.37079a.62386.62386,0,0,0,.13549-.68115L2.9773,26.63574A.62311.62311,0,0,0,2.3999,26.25H1.875A1.87705,1.87705,0,0,1,0,24.375v-3.75A1.87705,1.87705,0,0,1,1.875,18.75h.5249a.62292.62292,0,0,0,.5774-.38605l1.48895-3.59466-.6662-.6662a1.8769,1.8769,0,0,1,0-2.65167L6.45173,8.79974a1.91952,1.91952,0,0,1,2.65167,0l.37109.37079a.62435.62435,0,0,0,.68085.13581L13.36427,7.977A.6228.6228,0,0,0,13.75,7.3996V6.875A1.877,1.877,0,0,1,15.625,5H17.5a.625.625,0,0,1,0,1.25H15.625A.62582.62582,0,0,0,15,6.875v.5246a1.86863,1.86863,0,0,1-1.15753,1.73217l-3.20862,1.32935a1.86737,1.86737,0,0,1-2.04316-.40649l-.3714-.37079a.63873.63873,0,0,0-.88348-.00031l-2.652,2.65168a.62624.62624,0,0,0,0,.88409l.6662.6662a1.24639,1.24639,0,0,1,.271,1.3623l-1.489,3.59467A1.86927,1.86927,0,0,1,2.3999,20H1.875a.62582.62582,0,0,0-.625.625v3.75A.62582.62582,0,0,0,1.875,25h.5249a1.86959,1.86959,0,0,1,1.73218,1.15723l1.32935,3.20892a1.87026,1.87026,0,0,1-.40619,2.04346l-.3714.37109a.62441.62441,0,0,0,0,.88348l2.65168,2.652a.63932.63932,0,0,0,.88348,0l.3714-.37109a1.86916,1.86916,0,0,1,2.04346-.4065l3.20892,1.32935A1.86959,1.86959,0,0,1,15,37.6001v.5249a.62582.62582,0,0,0,.625.625h2.5a.625.625,0,1,1,0,1.25Z" fill="#252525"/></g><text transform="translate(21.87484 20.00038)" font-size="9.1089" fill="#252525" font-family="Archivo-Regular, Archivo">AI</text></svg>