<svg id="Layer_1" data-name="Layer 1" xmlns="http://www.w3.org/2000/svg" width="40" height="40" viewBox="0 0 40 40"><rect x="21.09878" y="12.0364" width="18.16198" height="27.28743" rx="1.62263" fill="#f2b705"/><path d="M37.48,11.54h-.04V1.55A1.661,1.661,0,0,0,35.69,0H1.76A1.67038,1.67038,0,0,0,0,1.55V26.34a1.66367,1.66367,0,0,0,1.76,1.55H20.07a.65318.65318,0,0,0,.29-.07v9.96A2.3895,2.3895,0,0,0,22.88,40h14.6A2.38951,2.38951,0,0,0,40,37.78V13.77A2.39052,2.39052,0,0,0,37.48,11.54ZM1.17,1.55a.55393.55393,0,0,1,.59-.52H35.69a.55086.55086,0,0,1,.58.52V5.17H1.17ZM20.36,13.77V26.93a.65318.65318,0,0,0-.29-.07H1.76a.55389.55389,0,0,1-.59-.52V6.2h35.1v5.34H22.88A2.39052,2.39052,0,0,0,20.36,13.77Zm18.5,23.97a1.33723,1.33723,0,0,1-1.38,1.37H22.88a1.42777,1.42777,0,0,1-1.51-1.33V13.77a1.42884,1.42884,0,0,1,1.51-1.34h14.6a1.33723,1.33723,0,0,1,1.38,1.37Z" fill="#161616"/><path d="M35.15269,33.40748H25.20684a.52056.52056,0,1,1,0-1.03311h9.94585a.52056.52056,0,1,1,0,1.03311Z" fill="#161616"/><path d="M37.6753,17.39433H24.21916a.52056.52056,0,1,1,0-1.0331H37.6753a.52056.52056,0,1,1,0,1.0331Z" fill="#161616"/><path d="M32.22744,36.24853H28.13209a.52056.52056,0,1,1,0-1.03311h4.09535a.52056.52056,0,1,1,0,1.03311Z" fill="#161616"/><path d="M14.04119,15.49657a.6249.6249,0,0,1-.41365-.15134.47481.47481,0,0,1,0-.73044l2.5116-2.21754-2.5116-2.21754a.47481.47481,0,0,1,0-.73044.641.641,0,0,1,.8273,0L17.38009,12.032a.47481.47481,0,0,1,0,.73044l-2.92525,2.58276A.6249.6249,0,0,1,14.04119,15.49657Z" fill="#161616"/><path d="M7.60565,15.49657a.62488.62488,0,0,1-.41365-.15134L4.26675,12.76247a.4748.4748,0,0,1,0-.73044L7.192,9.44927a.641.641,0,0,1,.82729,0,.4748.4748,0,0,1,0,.73044l-2.5116,2.21754,2.5116,2.21754a.4748.4748,0,0,1,0,.73044A.62486.62486,0,0,1,7.60565,15.49657Z" fill="#161616"/><path d="M9.94613,15.49657a.6655.6655,0,0,1-.16826-.0217.50969.50969,0,0,1-.39251-.64316l1.75515-5.16553a.60245.60245,0,0,1,.72846-.34655.5097.5097,0,0,1,.39251.64317l-1.75515,5.16552A.5813.5813,0,0,1,9.94613,15.49657Z" fill="#161616"/><path d="M4.6804,3.61587H3.5103a.55387.55387,0,0,1-.585-.51656.55387.55387,0,0,1,.585-.51655H4.6804a.55387.55387,0,0,1,.58505.51655A.55387.55387,0,0,1,4.6804,3.61587Z" fill="#161616"/><path d="M7.60565,3.61587H6.43555a.55387.55387,0,0,1-.585-.51656.55387.55387,0,0,1,.585-.51655h1.1701a.55387.55387,0,0,1,.585.51655A.55387.55387,0,0,1,7.60565,3.61587Z" fill="#161616"/><path d="M10.53089,3.61587H9.36079a.55387.55387,0,0,1-.585-.51656.55386.55386,0,0,1,.585-.51655h1.1701a.55387.55387,0,0,1,.58505.51655A.55387.55387,0,0,1,10.53089,3.61587Z" fill="#161616"/></svg>