<svg id="Layer_1" data-name="Layer 1" xmlns="http://www.w3.org/2000/svg" width="40" height="40" viewBox="0 0 40 40"><g id="wordpress_developer" data-name="wordpress developer"><path d="M21.20071,24.37463s-3.40679-6.1415-2.13819-5.62492,5.7132,2.797,5.7132,2.797L36.60284,35.74131l.27155,1.78624L35.625,38.75048l-2.30458.51624Z" fill="#f2b705"/><path d="M37.91,5.04l-.15-.03c-.07,0-.14-.01-.21-.01H35.62V1.25A1.24837,1.24837,0,0,0,34.38,0H5.62A1.24837,1.24837,0,0,0,4.38,1.25V5.01A.33983.33983,0,0,0,4.28,5H2.4a1.49964,1.49964,0,0,0-.37.05A.567.567,0,0,0,1.91,5.09,2.45913,2.45913,0,0,0,0,7.5V31.87a2.50091,2.50091,0,0,0,2.5,2.5H24.38v2.35a2.48828,2.48828,0,0,0,.73,1.77l.26.26H14.63l.26-.26a2.48828,2.48828,0,0,0,.73-1.77v-.47a.62008.62008,0,1,0-1.24,0v.47a1.28194,1.28194,0,0,1-.37.89l-1.33,1.32a.61513.61513,0,0,0-.13.68.6054.6054,0,0,0,.57.39H26.88a.6054.6054,0,0,0,.57-.39.61513.61513,0,0,0-.13-.68l-1.33-1.32a1.28194,1.28194,0,0,1-.37-.89V34.37h2.83l2.01,2.48,1.62,2.01a3.0255,3.0255,0,0,0,2.07,1.12c.11.01.21.02.32.02a3.0268,3.0268,0,0,0,3.02-2.77,3.00074,3.00074,0,0,0-.7-2.22l-.54-.64H37.5a.5696.5696,0,0,0,.13-.01A2.4871,2.4871,0,0,0,40,31.87V7.5A2.4864,2.4864,0,0,0,37.91,5.04ZM5.62,1.25H34.38v5H5.62Zm0,6.25H34.38V28.12H31l-5.78-6.88a.8981.8981,0,0,0-.18994-.15L19.67,18.2a.624.624,0,0,0-.69.07.59431.59431,0,0,0-.2.66l1.61,5.39a.64979.64979,0,0,0,.11.22l2.9,3.58H5.62Zm-4.37,0A1.25046,1.25046,0,0,1,2.5,6.25H4.28a.33983.33983,0,0,0,.1-.01V28.12H1.25ZM2.5,33.12a1.25046,1.25046,0,0,1-1.25-1.25v-2.5H24.41l3.03,3.75Zm33.74,4a1.80223,1.80223,0,0,1-1.96,1.62,1.751,1.751,0,0,1-1.22-.67l-1.24-1.53,1.27-1.03a.62552.62552,0,0,0-.79-.97l-1.26,1.03-.97-1.2-1.02-1.25-7.5-9.27-1.14-3.83L24.34,22.14l9.23,10.98,1.05,1.25,1.21,1.44A1.73915,1.73915,0,0,1,36.24,37.12Zm2.51-5.25a1.25046,1.25046,0,0,1-1.25,1.25H35.2l-3.15-3.75h6.7Zm0-3.75H35.62V6.25H37.5A1.25046,1.25046,0,0,1,38.75,7.5Z" fill="#252525"/><path d="M9.375,4.37493H8.125a.625.625,0,1,1,0-1.25h1.25a.625.625,0,1,1,0,1.25Z" fill="#252525"/><path d="M12.5,4.37493H11.25a.625.625,0,1,1,0-1.25H12.5a.625.625,0,1,1,0,1.25Z" fill="#252525"/><path d="M29.375,15.62476H10.625a.62464.62464,0,0,1-.625-.625V10.62484a.62463.62463,0,0,1,.625-.625h18.75a.62463.62463,0,0,1,.625.625v4.37493A.62464.62464,0,0,1,29.375,15.62476Zm-18.125-1.25h17.5V11.24983H11.25Z" fill="#252525"/><path d="M11.25,19.3747H10a.625.625,0,1,1,0-1.25h1.25a.625.625,0,1,1,0,1.25Z" fill="#252525"/><path d="M11.25,21.87467H10a.625.625,0,1,1,0-1.25h1.25a.625.625,0,1,1,0,1.25Z" fill="#252525"/><path d="M11.25,24.37463H10a.625.625,0,1,1,0-1.25h1.25a.625.625,0,1,1,0,1.25Z" fill="#252525"/><path d="M16.25,24.37463H15a.625.625,0,1,1,0-1.25h1.25a.625.625,0,1,1,0,1.25Z" fill="#252525"/><path d="M16.25,21.87467H15a.625.625,0,1,1,0-1.25h1.25a.625.625,0,1,1,0,1.25Z" fill="#252525"/><path d="M16.25,19.3747H15a.625.625,0,1,1,0-1.25h1.25a.625.625,0,1,1,0,1.25Z" fill="#252525"/></g></svg>