<svg id="Layer_1" data-name="Layer 1" xmlns="http://www.w3.org/2000/svg" width="40" height="40" viewBox="0 0 40 40"><path d="M21.16181,20.28137a5.79634,5.79634,0,0,1-5.06633,5.68108,6.10039,6.10039,0,0,0,1.06092.09415h0a5.82493,5.82493,0,0,0,5.9064-5.73991V15.53991h-1.901Z" fill="#f2b705"/><path d="M18.06716,2.8715h0a5.89322,5.89322,0,0,0-.676.03923,5.95652,5.95652,0,0,1,5.1614,6.0575v3.01968h1.352V8.96823A5.9373,5.9373,0,0,0,18.06716,2.8715Z" fill="#f2b705"/><polygon points="33.263 23.904 28.567 27.726 28.567 30.778 21.367 37.587 23.687 39.718 30.915 33.779 35.376 33.278 39.524 29.448 38.037 27.569 35.219 29.917 33.341 30.336 32.48 29.1 32.793 27.413 35.219 24.791 33.263 23.904" fill="#f2b705"/><path d="M39.21767,27.75563,38.87414,27.46a1.39234,1.39234,0,0,0-1.71565,0l-2.118,1.8227a.26373.26373,0,0,1-.17127.06105H33.254V27.9536a.19505.19505,0,0,1,.07094-.14738l2.119-1.82358a.9471.9471,0,0,0-.001-1.47647l-.34353-.29477a3.06223,3.06223,0,0,0-3.77482,0l-2.86381,2.46369a2.2,2.2,0,0,0-.7276,1.16514H20.28375V25.76374a6.41165,6.41165,0,0,0,3.25192-5.41054V15.76854h1.79672a2.04542,2.04542,0,0,0,2.17774-1.87415,2.04608,2.04608,0,0,0-2.17774-1.875h-.86745V9.0917a7.29581,7.29581,0,0,0-6.216-7.20359V.69158a.53406.53406,0,0,0-.46008-.498,10.03173,10.03173,0,0,0-3.92278,0,.62092.62092,0,0,0-.33137.17965.46836.46836,0,0,0-.1287.31832V1.95177c-3.60357.88868-6.216,3.74918-6.216,7.13993v2.92766H6.32246a2.04609,2.04609,0,0,0-2.17775,1.875,2.04543,2.04543,0,0,0,2.17775,1.87415H8.11917V20.3532a6.41166,6.41166,0,0,0,3.25193,5.41054v2.07649H3.90758A3.67043,3.67043,0,0,0,0,31.2022V40H31.65484V34.14119H34.467a2.88088,2.88088,0,0,0,1.88691-.67326l2.8638-2.4637a2.07738,2.07738,0,0,0,0-3.2486ZM26.61431,28.86321h1.06506v1.94305a.1985.1985,0,0,1-.07094.14738l-.99412.85554Zm-2.92764,0h1.74v3.96808l-1.74,1.4974ZM8.3786,9.0917c0-2.76283,2.14937-5.14019,5.02736-6.04282V5.462a.52117.52117,0,0,0,.35132.47125c.15092.00582.30125.01333.45132.02152a.53237.53237,0,0,0,.41544-.49539l-.02939-4.34832a8.71365,8.71365,0,0,1,2.46555,0l.002.62443.002,1.03432.00709,2.7105a.54834.54834,0,0,0,.58371.50059h.01216a.54705.54705,0,0,0,.58168-.50233V3.00615A6.46172,6.46172,0,0,1,23.27726,9.0917v2.92766H8.3786ZM6.32246,14.74644a.93024.93024,0,0,1-.99007-.85205.93023.93023,0,0,1,.99007-.85205H25.33239a.93022.93022,0,0,1,.99006.85205.93023.93023,0,0,1-.99006.85205ZM9.30685,20.3532V15.76854H22.348V20.3532a5.47405,5.47405,0,0,1-2.98135,4.71112q-.08056.04448-.16113.08634c-.02938.01657-.05978.03139-.09019.04621l-.00912.00437-.00506.00261c-.05574.02791-.11148.05582-.16823.082l-.04864.02268c-.0456.02093-.0912.04186-.13781.061-.02433.01134-.04966.02181-.075.03227l-.01925.00785c-.04763.02006-.09526.04012-.1439.05843l-.09526.03663-.02127.00785c-.02433.00872-.04764.01744-.072.02529l-.0152.00611c-.06283.0218-.12566.0436-.1895.06366-.02837.00959-.05675.01831-.08614.027l-.002.00088c-.03648.01133-.073.02267-.11046.03314l-.03344.00959c-.06283.01831-.12667.03575-.19052.05145-.02736.00785-.05472.014-.08208.02093-.03749.0096-.074.01832-.11147.02617-.0375.00959-.076.01744-.11451.02529-.03851.00872-.077.01569-.11553.02354-.03243.007-.06587.01309-.09931.01919l-.0608.01047c-.04256.00784-.08614.01482-.1287.02093-.03344.00523-.06688.01046-.10134.01482l-.09323.01309c-.076.00959-.151.01831-.228.02528-.02635.00262-.0527.00524-.079.007-.04966.00436-.10033.00785-.15.01134-.03648.00261-.072.00436-.10844.0061l-.0304.00175-.06283.00262-.01317.00087c-.03344.00087-.06688.00261-.10032.00261q-.09273.00263-.18545.00262c-.0608,0-.12262-.00087-.18342-.00262-.03547,0-.07093-.00174-.10641-.00261-.02432-.00087-.04864-.00175-.073-.00349l-.02229-.00088c-.03851-.00174-.077-.00436-.11553-.007-.04661-.00262-.09323-.0061-.13883-.01046-.06385-.00524-.12667-.01134-.1895-.01832l-.08715-.01046-.04358-.00524c-.0304-.00349-.05979-.00785-.09019-.01221-.03445-.00436-.06891-.00959-.10337-.01482-.04256-.00611-.08512-.01309-.12869-.02093l-.04357-.00785c-.04358-.00785-.08817-.0157-.13175-.02442q-.09879-.01962-.1976-.04186c-.04257-.0096-.08614-.02006-.1287-.03053q-.0456-.01045-.09121-.02354c-.05776-.01483-.11653-.02965-.17328-.0471-.01419-.00349-.02838-.007-.04155-.01133-.0304-.0096-.06182-.01832-.09222-.02791s-.06081-.01832-.09121-.02878l-.004-.00088c-.01216-.00348-.02432-.00784-.03648-.0122-.0456-.014-.0912-.02966-.13579-.04535-.02635-.00872-.0527-.01832-.079-.02791-.10843-.03925-.21585-.08111-.32125-.12646-.02938-.01133-.05877-.02354-.08715-.03662l-.01418-.007c-.01622-.007-.03243-.01395-.04864-.0218-.01723-.00785-.03345-.01483-.04966-.02268l-.03243-.01395c-.02533-.01134-.05168-.02355-.077-.03663l-.00506-.00262c-.03648-.01744-.074-.03488-.11046-.05407l-.00507-.00261-.00911-.00437c-.03041-.01482-.06081-.02964-.0902-.04621q-.08056-.04186-.16113-.08634A5.47407,5.47407,0,0,1,9.30685,20.3532Zm9.78922,6.00794V28.6478c0,.06715-.003.13343-.00811.19971q-.003.04317-.00912.08634v.00087c-.003.02965-.00709.05843-.01216.08721-.00405.02965-.00912.05931-.0152.08808-.00912.0471-.01926.09419-.03142.13954-.0081.034-.01722.06716-.02735.10029a2.45234,2.45234,0,0,1-.11654.31222c-.01216.027-.02432.05319-.0375.07936a.64023.64023,0,0,1-.03243.06279c-.02128.04186-.04459.08285-.06891.123-.01722.02965-.03546.0593-.05472.08808-.02736.0436-.05776.08721-.08917.12907q-.04257.06018-.09121.11774a2.7419,2.7419,0,0,1-.2199.2407c-.02128.0218-.04358.04273-.06689.06366-.02533.02355-.05167.0471-.078.06977q-.04105.03533-.08209.068c-.02432.01919-.04864.03838-.073.05669-.04459.03488-.0912.06715-.13782.09942-.0375.02529-.075.04884-.1135.07238-.03547.02268-.073.04448-.10944.06541q-.05018.02878-.10033.055l-.04154.0218c-.02737.01308-.05473.027-.08209.03924-.02736.014-.05574.02617-.08309.03838-.05372.02441-.10844.04709-.16417.06715-.02635.01046-.0527.02093-.08006.02965-.03142.01221-.06385.02268-.09627.03314-.03344.01046-.06587.02093-.09931.03052l-.01926.00523q-.04255.01309-.08512.02355c-.08614.02268-.17329.04186-.26246.05756-.0223.00436-.04459.00872-.06688.01134q-.03345.00654-.06689.01046-.04713.00785-.09424.01309c-.04358.00523-.08817.00959-.13276.01308-.01722.00174-.03344.00349-.05067.00436-.01722.00174-.03344.00261-.05066.00349-.0304.00174-.0598.00261-.0902.00349q-.06384.00261-.12768.00261a3.07036,3.07036,0,0,1-3.26915-2.81341V26.36114c.01824.00784.03749.01482.05573.0218l.00912.00349c.01824.00785.0375.01482.05574.0218.04864.01919.09728.0375.14694.05494l.01925.007c.0304.01134.06081.02268.09121.03314l.01114.00349c.03243.01134.06385.02267.09628.03314l.09627.03139c.06586.02181.13174.04187.19862.061.02533.007.05066.01483.076.0218.04054.01222.08107.02355.12262.034h.001l.02331.0061.01114.00349c.03851.01046.077.02006.11655.02965.01722.00436.03445.00785.05066.01221.06588.0157.13073.0314.1966.04535l.02736.00611c.05776.01221.11552.02441.17329.03488.05168.01047.10336.02006.15606.02878.04053.00785.08107.01482.12261.02093.04257.007.08615.014.12972.01919.01115.00261.02331.00348.03547.00523.04053.0061.08208.01221.12262.01657l.10539.01308.01216.00087c.05269.00611.10539.01134.15808.01657.03345.00349.06587.00611.09932.00872.03749.00349.075.00611.11147.00872q.06536.00523.13072.00786c.03649.00261.074.00435.11046.0061.0608.00261.12161.00436.18342.0061q.10641.00263.21281.00262t.21281-.00262c.06181-.00174.12262-.00349.18342-.0061.03547-.00175.07094-.00349.1064-.0061q.06689-.00263.13377-.00786l.10742-.00785.01114-.00087c.0304-.00261.06182-.00523.09223-.00872.05674-.00523.11451-.01134.17126-.01744.03242-.00349.06485-.00785.09626-.01221.04966-.0061.09932-.01221.149-.02006h.002c.04864-.00611.09627-.014.1439-.0218l.01216-.00174c.03344-.00524.06688-.01047.10032-.01657l.15707-.02878.01115-.00262c.06384-.01221.1287-.02529.19254-.03924.04662-.01047.09425-.02093.14086-.03227l.01723-.00349c.02838-.00611.05675-.01308.08411-.02006.04459-.01046.08816-.0218.13174-.034l.03141-.00872h.001c.04054-.01047.08208-.0218.12262-.034.02533-.007.05067-.01482.076-.0218.03344-.00959.06587-.01918.0983-.02965.03344-.01047.06688-.02093.09931-.0314.06587-.02093.13174-.04273.19659-.0654.05168-.01745.10337-.03663.15505-.05582l.00709-.00261c.02838-.01047.05675-.02093.08512-.03227.02838-.01047.05675-.0218.08412-.03314a.17629.17629,0,0,0,.02736-.01047ZM5.04054,38.97789H1.18869V31.2022a2.553,2.553,0,0,1,2.71889-2.339h1.133Zm2.92764,0H6.22923V28.86321h1.739Zm13.74645-2.95208a2.133,2.133,0,0,0-.78131,1.62386,1.9979,1.9979,0,0,0,.13681.72734v.00087a2.12831,2.12831,0,0,0,.35468.6H9.15586V28.86321h2.22233c.00406.07151.01115.143.02129.21367.003.02529.00608.05057.01013.07587q.01975.13342.05168.26424c.0071.03053.0152.06018.02331.08983.00811.03053.01621.06018.02533.08983q.01216.04448.02737.089c.00911.02965.01925.05843.02938.08722.01622.04621.03446.09244.0527.13779l.03344.07936c.01824.041.03648.08285.05675.123.01317.027.02634.05321.03952.07937q.02128.04317.0456.08634.02129.04054.0456.0811c.01318.02268.02635.04448.04054.06715.01317.02268.02736.04448.04256.06716.04053.06453.08411.1282.12971.19012a.57571.57571,0,0,0,.03649.04883c.02432.03227.04965.06454.075.09593.02533.03227.05066.06367.078.09419.02635.03052.0527.061.08006.0907.02837.03139.05675.06105.08512.0907.04054.041.08108.08111.12262.12035l.01419.014c.04459.041.08816.08024.13377.11948.05067.04361.10234.08547.155.12733l.00406.00349c.05067.03924.10336.07849.15606.11686.01317.00872.02635.01831.03952.02617.02128.01569.04256.03052.06485.04447.02128.01483.04358.02965.06587.04361.02129.01395.04459.02877.06688.04186.01419.00959.03041.01918.04561.02791.0304.01831.0608.03662.0912.05407q.05472.03139.10945.06017c.075.041.151.07936.229.11512.01824.00872.03547.01744.05472.02529.02939.014.05877.027.08918.03925q.073.03138.14593.06017c.076.02965.153.05756.23206.08285q.04864.017.09728.0314c.03243.01046.06587.02005.0983.02964.05675.01658.11553.03227.1743.04623l.04358.01046a.40967.40967,0,0,0,.04459.01047c.02938.007.05877.01308.08816.01919.03851.00872.078.01657.11755.02354.0223.00436.0456.00785.06891.01221.05067.00872.10134.01657.153.02355.03851.00523.076.01047.11451.01482.02027.00262.04155.00524.06283.007l.08208.00785c.02331.00262.04561.00436.06891.00523l.02331.00175q.0456.00392.0912.00523c.04561.00349.09121.00523.13782.00611.04459.00087.08918.00174.13377.00174s.08918-.00087.13376-.00174c.04662-.00088.09222-.00262.13782-.00611q.04562-.00131.09121-.00523c.0304-.00175.06181-.00436.09222-.007.04965-.00436.10032-.00959.15-.0157.03141-.00348.06181-.007.09323-.01134.02736-.00348.05573-.00784.08309-.01221.02939-.00436.05878-.00872.08715-.014.02635-.00436.05169-.00959.078-.014.0679-.01221.13579-.027.20166-.04274q.06537-.01438.13073-.03139c.0375-.00959.076-.02006.1135-.03052l.08917-.02617c.03041-.00959.06182-.01918.09222-.02965.04155-.01308.0831-.027.12363-.04186.02534-.00872.05169-.01831.077-.02791.04256-.01569.08513-.03226.12667-.04971.04256-.01744.08411-.03488.12566-.05319a4.73308,4.73308,0,0,0,.42866-.21629c.01621-.00872.03142-.01831.04661-.027.05473-.03139.10844-.0654.16215-.09941.03952-.0253.078-.05146.11653-.07849.01723-.01134.03446-.02355.05169-.03576.03547-.02529.06992-.05058.10438-.07674.02229-.01657.04559-.034.06789-.05233.02331-.01745.0456-.03576.0679-.05407.0304-.02529.0608-.05059.09019-.07675q.0456-.03794.08816-.07848c.02939-.02617.05776-.05321.08513-.08024s.05573-.055.0831-.08285c.02229-.02267.04357-.04535.06485-.0689.02128-.02267.04256-.04622.06384-.06976.01824-.02006.03547-.041.0527-.061.02533-.03052.05067-.06105.075-.09157.02837-.03489.05573-.07064.08208-.1064.02432-.03227.04763-.06454.06992-.09768q.035-.04971.06688-.09941c.01521-.02355.03041-.0471.04459-.07064.01622-.02617.03243-.05321.04763-.07937q.02432-.04054.04561-.0811c.02229-.041.04357-.082.06485-.12384l.00811-.0157c.01722-.03489.03344-.07064.04965-.10553l.00406-.00872c.01722-.03837.03445-.07761.04965-.11773.01621-.03925.03142-.07936.04662-.11948l.00507-.01482c.01013-.02879.02027-.05757.02938-.08722q.01519-.04447.02737-.089c.00911-.02965.01722-.0593.02533-.08983.0081-.02965.01621-.0593.02331-.08983q.03192-.13081.05168-.26424c.004-.0253.00709-.05058.01013-.07587.01014-.07065.01723-.14216.02128-.21367H22.499V35.3508l-.63539.54681Zm8.75152,2.95208H25.834l.18646-.16047,4.44568-3.82593Zm7.72193-8.85972-2.86279,2.46457a1.33158,1.33158,0,0,1-.85833.30523H31.55452a1.97685,1.97685,0,0,0-.49453.0628,1.80423,1.80423,0,0,0-.59384.27645q-.05776.04187-.11248.089l-1.49575,1.28723-2.24361,1.93084-.59384.51106-.59384.511-.96676.832a1.29559,1.29559,0,0,1-.7732.293,1.45283,1.45283,0,0,1-.59385-.089,1.19326,1.19326,0,0,1-.3486-.20407,1.05751,1.05751,0,0,1-.24523-.3035l-.002-.00348a.91527.91527,0,0,1-.10843-.4317.699.699,0,0,1,.004-.08023.89714.89714,0,0,1,.10641-.355,1.05747,1.05747,0,0,1,.24523-.30349l.3486-.3.59385-.51105,2.3338-2.00846.59384-.511,2.0227-1.74072a1.62574,1.62574,0,0,0,.22091-.23286,1.31108,1.31108,0,0,0,.27767-.80059V28.29983a.88394.88394,0,0,1,.0304-.23024,1.01884,1.01884,0,0,1,.32428-.50843l2.8638-2.4637a1.35643,1.35643,0,0,1,1.71666,0l.17126.14738L32.2953,26.92016a1.35782,1.35782,0,0,0-.49757,1.03344V29.553a1.13937,1.13937,0,0,0,1.213,1.04392h1.85853a1.835,1.835,0,0,0,1.20085-.42821l1.9467-1.67444.17126.14738a.94394.94394,0,0,1,0,1.47648Z" fill="#252525"/><path d="M14.02007,5.9809a.69309.69309,0,0,0,.18853-.02613c-.15007-.00819-.3004-.0157-.45132-.02152a.67919.67919,0,0,0,.25063.04765Z" fill="#252525"/></svg>