<svg id="Layer_1" data-name="Layer 1" xmlns="http://www.w3.org/2000/svg" width="40" height="40" viewBox="0 0 40 40"><polygon points="9.8 12.27 6.099 12.899 6.099 14.419 7.95 15.28 17.369 15.28 31.859 15.28 33.361 14.419 33.904 13.775 32.992 12.899 29.663 12.27 29.663 7.712 27.766 4.949 24.74 3.153 21.527 2.054 22.05 1.015 19.73 0 17.568 1.015 17.203 2.21 14.613 3.097 10.629 5.758 9.633 8.68 9.8 12.27" fill="#f2b705"/><path d="M35.06427,27.84H25.63065V25.764c2.487-1.202,4.111-3.18,4.111-5.41V15.77h2.268c1.51966,0,2.75423-.842,2.75423-1.876s-1.23457-1.874-2.75423-1.874H30.91511V9.092c0-3.376-3.31934-6.234-7.85541-7.136V.692c0-.238-.24183-.444-.58038-.498a15.92275,15.92275,0,0,0-4.95609,0,.86914.86914,0,0,0-.42.18.42691.42691,0,0,0-.16292.318V1.956c-4.53353.902-7.85541,3.76-7.85541,7.136V12.02H7.99033c-1.51712,0-2.75169.84-2.75169,1.874S6.47321,15.77,7.99033,15.77h2.27058v4.584c0,2.23,1.624,4.208,4.10844,5.41V27.84H4.93828C2.21459,27.84,0,29.35,0,31.202V40H40V31.202C40,29.35,37.78541,27.84,35.06427,27.84ZM10.58674,9.092c0-2.806,2.66-5.198,6.35356-6.064l.00255,2.446c0,.284.34111.512.756.506h.01528c.40472-.006.73055-.23.73055-.506l-.00255-2.706V1.112a13.75669,13.75669,0,0,1,3.1157,0V5.476c0,.28.33346.508.74328.508h.01527c.40984-.002.7433-.228.7433-.508V3.028c3.6935.866,6.35356,3.258,6.35356,6.064V12.02H10.58674ZM7.99033,14.746c-.68984,0-1.2524-.382-1.2524-.852s.56256-.852,1.2524-.852H32.00967c.68984,0,1.25238.382,1.25238.852s-.56254.852-1.25238.852Zm3.76989,5.608V15.77H28.23978v4.584c0,1.966-1.4942,3.7-3.74951,4.702l-.01782.008c-.06619.03-.13492.058-.20364.086-.10183.042-.20365.082-.30546.122-.08656.032-.17564.064-.2622.094-.08146.028-.16291.054-.2469.082-.16037.05-.32584.098-.49128.14-.04329.014-.08911.024-.13237.034-.12728.034-.25455.064-.38438.09-.1069.022-.21381.044-.32073.062-.28.052-.5651.092-.85274.122-.06873.008-.13492.014-.20364.02-.10692.01-.21637.018-.32328.024a.15687.15687,0,0,1-.03054.002q-.12219.009-.24438.012c-.15527.006-.31309.01-.47091.01a11.65057,11.65057,0,0,1-1.37712-.08c-.06109-.006-.11964-.012-.18073-.022-.24182-.03-.4811-.07-.71783-.116-.07636-.014-.15019-.03-.224-.046-.112-.024-.22146-.05-.33092-.078-.03054-.006-.06108-.014-.09163-.022-.08146-.022-.16292-.044-.24183-.066-.27237-.078-.53964-.164-.79929-.262-.10182-.04-.20363-.08-.30546-.122-.06872-.028-.13745-.056-.20364-.086l-.01782-.008C13.25442,24.054,11.76022,22.32,11.76022,20.354Zm12.37112,6.008v2.286c0,1.552-1.85311,2.814-4.13134,2.814-2.27568,0-4.12881-1.262-4.12881-2.814V26.362c.11455.036.2291.072.3462.104a.26725.26725,0,0,0,.03817.01q.17565.051.35128.096.13746.036.27492.066c.06619.016.13237.03.19854.044.38692.084.77893.15,1.17857.198.06619.01.13492.018.20365.024.20872.024.41745.042.62873.054.05347.004.10691.008.16037.01.09673.006.19091.01.28765.012.04836.002.09673.004.14509.004.10436.002.21127.004.31564.004s.21128-.002.31564-.004c.14509-.002.29019-.008.43274-.016.056-.002.10945-.006.16545-.01.29783-.02.59055-.048.88329-.084.29019-.036.58037-.084.86548-.138.15527-.03.30545-.062.45819-.098.1069-.024.21126-.05.31818-.078.06872-.018.13746-.036.20364-.054.12218-.032.24437-.068.364-.106C24.04734,26.388,24.09062,26.376,24.13134,26.362ZM6.36885,38.978h-4.867V31.202c0-1.29,1.54257-2.338,3.43643-2.338H6.36885Zm3.70115,0H7.87068V28.864H10.07Zm18.3607,0H11.5693V28.864H14.377c.00255.026.0051.054.01019.08,0,.01.00255.022.00255.032.00508.042.01018.082.01781.122.00764.046.01782.092.028.138.01272.056.02545.11.04327.164.00509.02.01272.038.01782.058l.00255.01a.1235.1235,0,0,0,.01017.028c.0331.098.07128.196.11455.292.02037.042.03818.084.06109.126.01528.032.0331.06.05092.092v.002l.00254.002a1.49253,1.49253,0,0,0,.07891.134,1.583,1.583,0,0,0,.08654.134c.03055.044.06109.086.09419.128.02036.028.04328.058.06618.086.028.034.056.07.08655.104.0331.038.06872.076.10182.114.06108.064.12472.128.19346.19.04836.046.09927.092.15019.136.04581.04.09163.078.14254.116a1.33986,1.33986,0,0,0,.10946.084c.03564.028.07381.054.112.082.04327.03.08654.06.12982.088.08654.056.1731.112.26473.164.05346.032.10946.062.16547.092s.10945.058.16544.086c.04837.024.09673.048.14765.07.01017.006.0229.01.03309.016.06364.03.13237.06.19854.086a.09762.09762,0,0,0,.03055.012c.05346.024.10947.046.16546.066.056.022.112.044.17054.062.05856.022.11965.042.18329.062.01527.004.028.01.04327.014.05346.016.1069.034.16291.048l.0051.002c.06872.02.13745.04.20872.056.05346.014.10692.028.16036.038.06109.016.12473.03.18584.042q.1298.027.25963.048c.08655.016.17564.03.26474.04.08654.012.17564.024.26727.032q.10311.012.20619.018c.04836.004.09673.008.14509.01.07891.004.15782.008.23673.01s.15782.004.23928.004.16037-.002.23928-.004.15782-.006.23673-.01c.04836-.002.09673-.006.14509-.01q.10311-.006.20619-.018c.09163-.008.18073-.02.26727-.032.08909-.01.17819-.024.26473-.04q.12982-.021.25964-.048c.06109-.012.12473-.026.18582-.042.05346-.01.10692-.024.16037-.038.07128-.016.14-.036.20873-.056l.0051-.002c.056-.014.10945-.032.16291-.048.01528-.004.028-.01.04327-.014.06364-.02.12473-.04.18327-.062.05856-.018.11455-.04.17056-.062.056-.02.112-.042.16545-.066a.09729.09729,0,0,0,.03054-.012c.06619-.026.13492-.056.19856-.086.01018-.006.0229-.01.03309-.016.05092-.022.09928-.046.14765-.07.056-.028.10945-.056.16544-.086s.112-.06.16547-.092c.09163-.052.17819-.108.26473-.164.04326-.028.08655-.058.12982-.088.03819-.028.07636-.054.112-.082a1.3433,1.3433,0,0,0,.10946-.084c.05091-.038.09673-.076.14254-.116.05092-.044.10183-.09.15019-.136.06872-.062.13236-.126.19345-.19.03309-.038.06873-.076.10183-.114.03054-.034.05854-.07.08655-.104.0229-.028.04582-.058.06617-.086.03309-.042.06364-.084.0942-.128a1.583,1.583,0,0,0,.08654-.134,1.4973,1.4973,0,0,0,.07891-.134l.00254-.002v-.002c.01782-.032.03564-.06.05092-.092.0229-.042.04072-.084.06109-.126.04327-.096.08145-.194.11455-.292a.12447.12447,0,0,0,.01017-.028l.00255-.01c.0051-.02.01273-.038.01782-.058.01782-.054.03055-.108.04327-.164.01018-.046.02037-.092.028-.138.00764-.04.01274-.08.01782-.122,0-.01.00255-.022.00255-.032.00509-.026.00764-.054.01017-.08h2.8077Zm3.6986,0H29.93255V28.864H32.1293Zm6.36885,0h-4.867V28.864h1.43312c1.89385,0,3.43388,1.048,3.43388,2.338Z" fill="#252525"/></svg>