<svg id="Layer_1" data-name="Layer 1" xmlns="http://www.w3.org/2000/svg" width="40" height="40" viewBox="0 0 40 40"><path d="M33.52565,13.41038,31.76059,9.62966l2.099-1.15266s3.57783,3.18134,3.2916,4.334Z" fill="#f2b705"/><polygon points="30.655 9.607 27.315 19.197 25.55 16.569 25.55 12.05 29.462 8.085 30.655 9.607" fill="#f2b705"/><ellipse cx="31.35756" cy="7.74488" rx="1.32678" ry="1.28233" fill="#f2b705"/><path d="M36.95714,24.20642c-.139-.03534-.278-.06365-.43891-.099.29993-.37466.59249-.714.84853-1.08163a13.51016,13.51016,0,0,0,2.43576-10.32169,1.087,1.087,0,0,0-1.68237-.74938c-.1463.08483-.29988.16967-.44618.26157-.03657-.04949-.08045-.07775-.08778-.11309a7.59828,7.59828,0,0,0-3.672-4.32661.74483.74483,0,0,1-.2414-.32522Q33.36563,6.82575,33.08032,6.2a.46114.46114,0,0,1-.07313-.29691c.13166-.403.28529-.7918.44619-1.20888.07317.05652.10974.09186.15362.12725a2.38253,2.38253,0,0,0,3.84754-.94028c.12433-.31106.24135-.62921.34376-.95438A2.052,2.052,0,0,0,37.1839.65039,6.63815,6.63815,0,0,0,36.01352,0H35.0407a1.08989,1.08989,0,0,1-.20483.099,2.36861,2.36861,0,0,0-1.49951,1.428c-.44618,1.20185-.91433,2.40369-1.35324,3.61257a.48409.48409,0,0,1-.512.35349c-.49012.04246-.68758-.13429-.83389-.57968-.32184-.96853-.75343-1.90881-1.068-2.88442A2.77128,2.77128,0,0,0,27.60163,0h-.96554c-.1097.04949-.21211.106-.31453.14843a2.21746,2.21746,0,0,0-1.44829,2.67235,7.78654,7.78654,0,0,0,.534,1.38566,2.23729,2.23729,0,0,0,2.44312,1.18062,9.52449,9.52449,0,0,0,1.44829-.57972c.11706.31107.27064.69281.4023,1.08168a.45632.45632,0,0,1-.07313.311c-.19751.41713-.40229.83425-.60713,1.24426-.05848.11314-.10241.26157-.19019.31107a8.962,8.962,0,0,0-2.65523,2.26937c-1.2069-.6504-2.38455-1.29376-3.57685-1.923a27.93489,27.93489,0,0,0-9.47252-3.44291,14.09168,14.09168,0,0,0-5.10564.24039.31927.31927,0,0,0-.07317.01415.38144.38144,0,0,0-.06581.01411A10.1711,10.1711,0,0,0,4.80909,6.22835q-.24141.14847-.50471.31814A8.76651,8.76651,0,0,0,1.72227,9.28243a11.98,11.98,0,0,0-1.697,5.62037A10.66521,10.66521,0,0,0,1.3785,21.06042a1.0491,1.0491,0,0,1,.05853.43124,6.28092,6.28092,0,0,0,.05117,1.23719,3.89114,3.89114,0,0,0,3.45987,2.72891.55733.55733,0,0,1,.52664.33225,10.43608,10.43608,0,0,0,2.96244,3.60554.71563.71563,0,0,1,.2414.47365c.02928.61506.022,1.223.01464,1.83809-.00732.45247.13166,1.011-.0951,1.322-.2121.2828-.81924.29695-1.25814.41713A13.49224,13.49224,0,0,0,3.39,35.05829,4.1423,4.1423,0,0,0,1.437,38.784,1.11522,1.11522,0,0,0,2.56348,40H22.73739a1.00051,1.00051,0,0,0,1.05332-.83425,4.72456,4.72456,0,0,0,0-1.24422A3.58209,3.58209,0,0,0,22.752,35.77941c-.02192-.02119-.04388-.0495-.0658-.07068l-.21944-.21213a8.53845,8.53845,0,0,0-2.59675-1.428c-.05116-.02123-.08777-.03534-.117-.0495a.99613.99613,0,0,0-.13166-.04949c-.86313-.26865-1.73358-.53022-2.61135-.77061-.3072-.08483-.43158-.19792-.41694-.53022a23.66312,23.66312,0,0,0-.00732-2.49556,1.00711,1.00711,0,0,1,.68026-1.06752,1.6514,1.6514,0,0,1,.1463.16966A7.93376,7.93376,0,0,0,19.614,31.48106,10.18094,10.18094,0,0,0,28.4794,32.591a16.19588,16.19588,0,0,0,6.43692-3.88829c.929-.86248,1.78478-1.80983,2.626-2.75714A1.03406,1.03406,0,0,0,36.95714,24.20642ZM34.141,2.96925a5.36472,5.36472,0,0,1,.45351-1.23718,1.11089,1.11089,0,0,1,1.38981-.46662A1.07559,1.07559,0,0,1,36.628,2.58039a7.4846,7.4846,0,0,1-.3877,1.018,1.02781,1.02781,0,0,1-1.00943.63628A1.04083,1.04083,0,0,1,34.141,2.96925ZM27.77718,4.21347a1.09306,1.09306,0,0,1-1.24346-.49484,5.544,5.544,0,0,1-.46083-1.19477A1.03059,1.03059,0,0,1,26.819,1.23719a1.09714,1.09714,0,0,1,1.36784.65039,9.38981,9.38981,0,0,1,.373.98269.68738.68738,0,0,1,.02929.2545A1.08118,1.08118,0,0,1,27.77718,4.21347Zm4.94473,5.36588c.27064-.16259.512-.37472.81924-.60091,1.15574.43832,2.84543,2.538,2.86007,3.72567a6.52912,6.52912,0,0,1-2.5309.13433.5057.5057,0,0,1-.32917-.26158c-.33644-.84836-.64369-1.70376-.97282-2.55212A.30593.30593,0,0,1,32.72191,9.57935ZM31.35407,6.65251A1.09274,1.09274,0,1,1,31.33215,8.837a1.09232,1.09232,0,1,1,.02192-2.18453Zm.87777,5.93851c-.57057-.16967-1.06064-.31815-1.57995-.47366.234-.62213.4535-1.20184.70218-1.85228C31.654,11.064,31.92464,11.78507,32.23184,12.591Zm-5.9322-.05657a6.06849,6.06849,0,0,1,2.9478-3.62673c.29992.26865.59248.509.86312.77061a.31344.31344,0,0,1,.04389.26865q-1.558,4.17816-3.15263,8.36335c-.00727.01415-.03656.0283-.10237.06364A8.85791,8.85791,0,0,1,26.29964,12.53445ZM2.61469,22.036a2.33492,2.33492,0,0,1,1.93109-2.02191c.05116,1.38562.10969,2.78544.16822,4.18521A2.38139,2.38139,0,0,1,2.61469,22.036Zm16.597,13.04348h.0146c.022.00708.03661.00708.05853.01415a5.63752,5.63752,0,0,1,2.35535,1.28664c.08777.09191.17555.16971.256.25454a2.5954,2.5954,0,0,1,.68026,2.17741H2.7171a2.49541,2.49541,0,0,1,.83384-2.31881,5.61869,5.61869,0,0,1,1.52879-.98977c1.17766-.4595,2.3992-.82006,3.60614-1.19477.97286-.29691,1.21422-.57264,1.21422-1.55528v-2.432a5.06944,5.06944,0,0,0,5.49333-.00708v2.545a1.28677,1.28677,0,0,0,1.12649,1.43516C17.4196,34.5493,18.3193,34.81087,19.21171,35.07952Zm-2.5967-7.3171c.02924.0778.02924.22624-.022.26865a7.06089,7.06089,0,0,1-3.672,1.90174,3.20788,3.20788,0,0,1-1.82867-.34641A8.83267,8.83267,0,0,1,5.877,23.11771a9.33424,9.33424,0,0,1-.10969-1.16651,14.54291,14.54291,0,0,1,.97286-5.4507,5.19877,5.19877,0,0,1,3.42327-3.12476,4.60015,4.60015,0,0,1,3.32085.41712,5.85649,5.85649,0,0,1,3.29161,4.69421,12.25127,12.25127,0,0,1-.36574,4.058A9.25088,9.25088,0,0,0,16.615,27.76242Zm17.17486.34645a13.54963,13.54963,0,0,1-7.51219,3.72567,8.346,8.346,0,0,1-6.10775-1.43511,6.41916,6.41916,0,0,1-2.78689-4.772,14.34331,14.34331,0,0,1,.38765-3.70448,11.43235,11.43235,0,0,0,.20484-3.79639c-.02929-.198-.05853-.3959-.0951-.6151a.4876.4876,0,0,1,.117.0495l.17559.21212a12.06705,12.06705,0,0,1,1.675,3.09646c.14631.41713.43887.59387.78268.48077a.57951.57951,0,0,0,.36573-.84836c-.16826-.46662-.35841-.91905-.57056-1.37151a14.88438,14.88438,0,0,0-6.0785-6.23542,4.20383,4.20383,0,0,0-.651-.31107,7.13374,7.13374,0,0,0-3.48908-.49488.41836.41836,0,0,1,.07313-.07776.83636.83636,0,0,1,.16823-.10606,6.92049,6.92049,0,0,1,5.14224-.61506,9.6346,9.6346,0,0,1,2.89663,1.322.62564.62564,0,0,0,.89237-.13432.55708.55708,0,0,0-.18286-.82006,9.61848,9.61848,0,0,0-5.15685-1.79567,8.10447,8.10447,0,0,0-6.415,2.76421,12.57746,12.57746,0,0,0-2.72836,5.73346.4438.4438,0,0,1-.395.41005A4.228,4.228,0,0,0,2.4245,19.82324c-.05853.05657-.13166.10606-.23408.19089-.08777-.19089-.1609-.33933-.22675-.49488a10.279,10.279,0,0,1-.56324-5.8183,9.00088,9.00088,0,0,1,3.9353-6.41924.38239.38239,0,0,0,.03661-.02123A13.52989,13.52989,0,0,1,8.1007,6.1011H8.108a12.49754,12.49754,0,0,1,3.43059-.38882,17.65691,17.65691,0,0,1,4.88621.92612,57.659,57.659,0,0,1,9.02629,4.369.5401.5401,0,0,1,.07318.08484,7.31907,7.31907,0,0,0-.73147,3.38634,11.92154,11.92154,0,0,0,1.163,4.772,1.06025,1.06025,0,0,0,1.046.72112,1.1061,1.1061,0,0,0,.99483-.7918c.29256-.7918.59249-1.58359.89237-2.37543.43891-1.18062.8851-2.35416,1.3386-3.56308a15.3391,15.3391,0,0,0,4.22787.82714,7.58487,7.58487,0,0,0,4.14013-.98973,1.01721,1.01721,0,0,1,.08046.21916,12.62647,12.62647,0,0,1-1.01676,6.81514,13.38578,13.38578,0,0,1-2.22364,3.37926,1.03183,1.03183,0,0,0,.56324,1.74622c.14626.03534.29256.07068.5486.13433C35.5893,26.32731,34.73345,27.26758,33.78987,28.10887Z"/><path d="M12.6288,26.67314c-.65112-.17776-1.27188-.31992-1.87169-.52061a.54747.54747,0,0,1-.3857-.77313.59328.59328,0,0,1,.86367-.3,3.44864,3.44864,0,0,0,2.802.00657.60381.60381,0,0,1,.89426.3072c.13223.32693-.00988.635-.44614.77754C13.88421,26.367,13.26272,26.5047,12.6288,26.67314Z"/><path d="M9.7419,17.102c.48532.16649.94744.2915,1.37791.483a.53857.53857,0,0,1,.31233.7736.60042.60042,0,0,1-.84686.27252,1.75474,1.75474,0,0,0-1.72024.00387.60168.60168,0,0,1-.84571-.27791.54575.54575,0,0,1,.31782-.77176C8.78173,17.394,9.25541,17.26592,9.7419,17.102Z"/><path d="M10.36171,20.82315a4.193,4.193,0,0,1-.03906.46243.60784.60784,0,0,1-1.19725-.00034,3.64878,3.64878,0,0,1-.004-.9726.6091.6091,0,0,1,1.206.0016A5.09529,5.09529,0,0,1,10.36171,20.82315Z"/></svg>