<svg id="Layer_1" data-name="Layer 1" xmlns="http://www.w3.org/2000/svg" width="40" height="40" viewBox="0 0 40 40"><g id="coding-implement_phase" data-name="coding-implement phase"><circle cx="26.875" cy="26.87623" r="9.07766" fill="#f2b705"/><path d="M39.37,26.88a.62741.62741,0,0,0,.63-.63V1.88A1.87782,1.87782,0,0,0,38.12,0H1.88A1.87782,1.87782,0,0,0,0,1.88v30a1.87574,1.87574,0,0,0,1.88,1.87H20.52a9.33028,9.33028,0,0,0,6.36,2.5,9.122,9.122,0,0,0,3.44-.66l3.33,3.32a3.71937,3.71937,0,1,0,5.26-5.26l-3.34-3.28a9.23486,9.23486,0,0,0,.68-3.49,9.375,9.375,0,1,0-18.75,0,9.28951,9.28951,0,0,0,1.88,5.62H1.88a.62533.62533,0,0,1-.63-.62V7.5h37.5V26.25A.62533.62533,0,0,0,39.37,26.88Zm-1.34,7.66a2.45105,2.45105,0,0,1,.72,1.74,2.465,2.465,0,0,1-4.21,1.75l-3.02-3.02A9.39268,9.39268,0,0,0,35,31.55ZM18.75,26.88A8.125,8.125,0,1,1,26.88,35,8.13649,8.13649,0,0,1,18.75,26.88ZM1.25,6.25V1.88a.62738.62738,0,0,1,.63-.63H38.12a.62738.62738,0,0,1,.63.63V6.25Z" fill="#252525"/><path d="M15,18.75086a.625.625,0,0,1-.44189-1.06695l2.6831-2.68322-2.6831-2.68323a.62494.62494,0,0,1,.88378-.88383l3.125,3.12514a.6248.6248,0,0,1,0,.88383l-3.125,3.12514A.62294.62294,0,0,1,15,18.75086Z" fill="#252525"/><path d="M8.125,18.75086a.62294.62294,0,0,1-.44189-.18312l-3.125-3.12514a.6248.6248,0,0,1,0-.88383l3.125-3.12514a.62494.62494,0,0,1,.88378.88383l-2.6831,2.68323,2.6831,2.68322A.625.625,0,0,1,8.125,18.75086Z" fill="#252525"/><path d="M10.62531,18.75086a.63279.63279,0,0,1-.17975-.02625.6253.6253,0,0,1-.41931-.77823l1.875-6.25029a.62506.62506,0,1,1,1.1975.35891l-1.875,6.25028A.62521.62521,0,0,1,10.62531,18.75086Z" fill="#252525"/><path d="M5,4.3752H3.75a.625.625,0,0,1,0-1.25006H5A.625.625,0,0,1,5,4.3752Z" fill="#252525"/><path d="M8.125,4.3752H6.875a.625.625,0,0,1,0-1.25006h1.25a.625.625,0,0,1,0,1.25006Z" fill="#252525"/><path d="M11.25,4.3752H10a.625.625,0,0,1,0-1.25006h1.25a.625.625,0,0,1,0,1.25006Z" fill="#252525"/></g></svg>