<svg id="Layer_1" data-name="Layer 1" xmlns="http://www.w3.org/2000/svg" width="40" height="40" viewBox="0 0 40 40"><path d="M22.98524,20.42758a5.96131,5.96131,0,0,1-5.44149,5.68109,7.02448,7.02448,0,0,0,1.13948.09415h0c3.50359,0,6.34377-2.56984,6.34377-5.73991V15.68613H22.98524Z" fill="#f2b705"/><path d="M19.66143,3.01771h0a6.793,6.793,0,0,0-.72609.03924,6.10667,6.10667,0,0,1,5.5436,6.0575v3.01968h1.45211V9.11445A6.14878,6.14878,0,0,0,19.66143,3.01771Z" fill="#f2b705"/><path d="M27.15846,33.112l2.00418,2.4374s-3.96361,3.96522-4.67641,3.96522-2.053-1.4087-2.053-1.4087l.74985-1.61739Z" fill="#f2b705"/><path d="M39.09761,25.25a3.69635,3.69635,0,0,0-3.6797-.934L27.98763,26.5a1.54071,1.54071,0,0,0-1.06116,1.028,1.31425,1.31425,0,0,0-.05155.312h-4.6485V25.762a6.352,6.352,0,0,0,3.56156-5.41V15.768h1.96765a2.1811,2.1811,0,0,0,2.38869-1.874,2.18109,2.18109,0,0,0-2.38869-1.874h-.94945V9.09c0-3.376-2.87847-6.232-6.81164-7.134V.69a.55281.55281,0,0,0-.50265-.496,12.00091,12.00091,0,0,0-4.29835,0,.69282.69282,0,0,0-.363.178.45333.45333,0,0,0-.14179.318V1.956c-3.931.902-6.80947,3.76-6.80947,7.134v2.93H6.92763a2.18026,2.18026,0,0,0-2.38654,1.874,2.18027,2.18027,0,0,0,2.38654,1.874H8.8953v4.584a6.35184,6.35184,0,0,0,3.56369,5.41V27.84H4.28118C1.9204,27.84,0,29.348,0,31.202V40H34.68326V36.238a1.59432,1.59432,0,0,0,.35229.056,1.8079,1.8079,0,0,0,.3437-.016,1.58124,1.58124,0,0,0,1.20938-.874l3.11905-6.65A3.11376,3.11376,0,0,0,39.09761,25.25ZM25.95337,28.862H27.2358a.48536.48536,0,0,0,.0451.052l.57784.598v3.32a1.69,1.69,0,0,0-1.81729.206l-.08808.074ZM9.181,9.09c0-2.804,2.30491-5.196,5.50772-6.062l.00215,2.446a.59114.59114,0,0,0,.65517.506h.01289a.58741.58741,0,0,0,.63369-.508V1.11a10.519,10.519,0,0,1,2.70017,0V5.476a.58712.58712,0,0,0,.64443.506h.01289a.58711.58711,0,0,0,.64443-.506V3.028c3.20283.866,5.50989,3.256,5.50989,6.062v2.93H9.181ZM6.92763,14.746a.99141.99141,0,0,1-1.08479-.852.99141.99141,0,0,1,1.08479-.852h20.828a.99224.99224,0,0,1,1.08694.852.99225.99225,0,0,1-1.08694.852Zm3.27157,5.606V15.768h14.287v4.584a5.45552,5.45552,0,0,1-3.26512,4.712.46615.46615,0,0,1-.04511.022c-.14177.072-.28571.138-.43178.2-.073.03-.14606.06-.21909.088a.34441.34441,0,0,1-.04082.016c-.02792.012-.05585.022-.08593.034l-.02147.008q-.12889.048-.25778.09c-.1074.036-.21481.07-.32436.1-.07733.024-.15466.044-.23415.064l-.01074.002c-.05585.016-.11169.03-.1697.042-.18259.044-.36518.08-.55206.11-.03436.006-.07089.014-.10525.018l-.02363.004c-.0537.008-.1074.016-.16326.022-.05155.008-.10525.016-.159.02l-.0086.002c-.0988.012-.19762.02-.29644.028-.116.01-.23413.018-.35227.022h-.05157a.58286.58286,0,0,1-.06014.002c-.08808.004-.17615.006-.26636.006s-.1783-.002-.26636-.006a.58335.58335,0,0,1-.06016-.002h-.05155c-.11814-.004-.2363-.012-.35229-.022-.09882-.008-.19762-.016-.29429-.028h-.00215l-.00859-.002c-.05585-.004-.1074-.012-.16326-.02-.05155-.006-.101-.014-.15252-.022q-.0741-.009-.14822-.024c-.17613-.028-.35014-.064-.522-.104-.07088-.016-.14177-.032-.21266-.052l-.00644-.002c-.07089-.018-.14178-.038-.21267-.058-.10955-.03-.217-.064-.32436-.1-.08163-.028-.1611-.056-.24273-.086l-.0043-.002c-.03223-.012-.06874-.024-.101-.038-.08163-.03-.16111-.062-.2406-.096-.02362-.008-.0451-.018-.06873-.028-.09023-.04-.17829-.08-.26637-.122-.06014-.028-.11814-.056-.17613-.086l-.015-.008A5.45287,5.45287,0,0,1,10.1992,20.352ZM20.92252,26.36v2.288c0,1.55-1.60463,2.812-3.58088,2.812-1.97411,0-3.5809-1.262-3.5809-2.812V26.36a.26391.26391,0,0,0,.05157.018l.01932.006a.09424.09424,0,0,0,.02149.008l.015.006q.13212.048.26422.09a.50561.50561,0,0,0,.05156.016c.08592.028.16969.054.25562.078.01074.004.02363.006.03436.01.05371.016.10741.03.16111.044.09452.026.19119.05.28785.072.10311.026.20623.048.31148.068.043.01.08592.018.12888.026.05155.01.10311.02.15681.028.04081.008.08163.014.12244.02.03008.006.06015.01.09023.014.073.012.14822.022.2234.032.06229.008.12459.016.18688.022.13318.016.26637.028.39955.038.04941.004.09881.008.15037.01.08806.006.17829.01.26851.014h.03008c.116.004.232.006.35014.006s.23413-.002.35014-.006h.03006c.09023-.004.18045-.008.26852-.014.0537-.002.10526-.006.15682-.01l.07948-.006c.06444-.006.12673-.012.189-.018.04725-.004.09237-.008.13962-.014.058-.006.116-.014.174-.022.10312-.014.20838-.028.31148-.046.06659-.01.13533-.022.20192-.034l.015-.002c.06444-.012.12888-.024.19119-.038.06874-.012.13533-.028.20192-.042s.13318-.03.19977-.046c.1074-.026.21266-.054.31791-.084l.058-.018a.05383.05383,0,0,1,.01719-.004c.08161-.024.1611-.048.24272-.072.116-.038.22985-.076.3437-.118a.09417.09417,0,0,0,.02148-.008l.00645-.002h.00429A.30564.30564,0,0,0,20.92252,26.36ZM5.52278,38.978H1.3039V31.202c0-1.29,1.33613-2.34,2.97728-2.34h1.2416Zm3.20711,0H6.82452V28.862H8.72989Zm13.08624-1.482a2.19544,2.19544,0,0,0,.46614,1.482H10.03379V28.862h2.4338a.10364.10364,0,0,0,.00429.036c.00215.048.00645.094.01289.142q.00968.078.02579.156l.00644.038c.00858.046.01933.092.03007.138.00644.028.01289.054.02148.082a2.77433,2.77433,0,0,0,.10525.318c.02364.058.04727.116.073.172a1.36269,1.36269,0,0,0,.06229.124c.015.032.03223.064.04942.094.02578.05.0537.098.08377.146a1.68512,1.68512,0,0,0,.09238.144.30329.30329,0,0,0,.02362.032q.05155.078.10956.15a3.81784,3.81784,0,0,0,.41243.456c.09452.088.19332.174.29644.256a.37032.37032,0,0,0,.03007.024c.04941.038.101.078.15466.114.04727.034.09452.066.14177.098q.058.039.12244.078c.02364.016.04942.03.07305.044a.351.351,0,0,0,.03651.022,4.97247,4.97247,0,0,0,.78621.374c.01933.008.03652.014.0537.02q.0999.039.20621.072c.06016.02.12245.04.18475.056.06014.018.12029.034.18258.05.02793.008.06014.016.09022.022.073.018.14822.034.22341.048q.11922.024.24488.042c.09666.016.19548.028.29643.038.06016.006.12245.012.18474.016.04941.006.101.008.15037.01.03653.002.07519.004.1117.004.06444.004.12675.004.19119.004.07088,0,.14392-.002.21481-.004.03006,0,.06014-.002.09021-.004.13319-.006.26637-.016.3974-.032.08378-.01.16541-.022.24919-.034.03221-.004.06659-.01.0988-.016a.8179.8179,0,0,0,.09667-.018c.06659-.012.131-.026.19548-.04.07088-.016.14177-.034.21051-.052.043-.01.08378-.022.1246-.034.06874-.018.13748-.04.20407-.062.06444-.022.12888-.044.19117-.068a.42331.42331,0,0,0,.06445-.024q.11277-.042.2191-.09c.11171-.046.21911-.098.32437-.154.02147-.01.04511-.022.06874-.036.03866-.02.07732-.04.116-.064.02364-.014.04511-.026.06659-.038.07948-.046.15467-.094.22985-.144.08163-.054.159-.11.23415-.168a.04958.04958,0,0,0,.01932-.016.44785.44785,0,0,0,.04942-.038,3.20454,3.20454,0,0,0,.29644-.256c.03866-.036.07518-.072.11169-.11.02578-.024.04941-.05.073-.076.04082-.044.07948-.088.11814-.134a1.65743,1.65743,0,0,0,.11171-.136c.03221-.042.06444-.084.09452-.128l.03866-.054a1.69239,1.69239,0,0,0,.09237-.144,3.34436,3.34436,0,0,0,.19547-.364c.02578-.056.04941-.114.073-.172l.01289-.032c.01719-.044.03222-.09.04725-.136a.90253.90253,0,0,0,.03223-.108,1.18373,1.18373,0,0,0,.03436-.124c.01075-.046.02149-.092.03008-.138l.00645-.038q.01611-.078.02577-.156c.00644-.048.01074-.094.01289-.142a.10341.10341,0,0,0,.0043-.036h2.43379v5.34L22.6453,35.88A2.27221,2.27221,0,0,0,21.81613,37.496Zm6.04261,1.482H26.45818l1.40056-1.172Zm.62725-3.412-.62725.526-1.90537,1.594-.86353.724a1.20287,1.20287,0,0,1-1.61322-.08,1.0127,1.0127,0,0,1-.29214-.766,1.03016,1.03016,0,0,1,.378-.734l1.08909-.912,1.30175-1.09,1.00531-.842a.22371.22371,0,0,1,.16326-.054.2343.2343,0,0,1,.159.07l.57784.598.64229.666A.20191.20191,0,0,1,28.486,35.566Zm4.89552,3.412H29.16264V36.716l.23843-.2a1.42015,1.42015,0,0,0,.12031-2.102l-.15252-.158,1.697-1.422,2.31566,2.396ZM29.16264,32.71V30.862l.98813,1.022ZM38.451,28.244l-3.11689,6.648a.22788.22788,0,0,1-.174.126.24268.24268,0,0,1-.20622-.068l-.27067-.28-1.30175-1.348L32.08406,31.98l1.27383-1.066.93442-.782a.556.556,0,0,0,.1117-.122.6049.6049,0,0,0-.06015-.78.71064.71064,0,0,0-.66806-.192.69195.69195,0,0,0-.30074.144l-.65517.55-1.55092,1.3-2.00633-2.078-.08807-.092-.77546-.802a.18948.18948,0,0,1-.04942-.196l.00645-.024a.22192.22192,0,0,1,.14392-.124l7.4303-2.184a2.291,2.291,0,0,1,.76042-.09,2.22484,2.22484,0,0,1,1.48863.66A1.90229,1.90229,0,0,1,38.451,28.244Z" fill="#252525"/></svg>