<svg id="Layer_1" data-name="Layer 1" xmlns="http://www.w3.org/2000/svg" width="40" height="40" viewBox="0 0 40 40"><g id="user_experience-testing" data-name="user experience-testing"><path d="M27.43738,40H39.6469l-2.61706-4.375.17568-5.6666-3.44344-6.53555-3.584-4.90166L28.878,18.21482,27.43738,19.27v1.19138l-2.10824-1.29349-2.14337,1.22541-1.89741-.13616-1.89741.98715-1.33521-.64675-4.603-6.26324a.85327.85327,0,0,0-1.26494,0A15.16865,15.16865,0,0,0,10.64511,15.798l.91025,2.21256,5.86791,8.54387-2.98666.10212-.52706,1.15733,5.41113,7.45461,3.54886,2.38276L27.086,38.75188Z" fill="#f2b705"/><path d="M39.92,39.07l-1.85-3.2a2.81318,2.81318,0,0,1-.15-1.93c.02-.17.04-.33.06-.49a13.44222,13.44222,0,0,0-2.5-8.56l-4.12-6.01a2.47329,2.47329,0,0,0-1.6-1.01,2.6476,2.6476,0,0,0-2.81,1.39,2.52568,2.52568,0,0,0-1.17-.54,2.582,2.582,0,0,0-.62006-.03V3.12A3.17848,3.17848,0,0,0,21.94,0H3.23A3.1809,3.1809,0,0,0,0,3.12V36.87A3.18279,3.18279,0,0,0,3.23,40H22.05a3.03026,3.03026,0,0,0,2.44-1.25l1.96.57.27.4a.66464.66464,0,0,0,.9.18.61986.61986,0,0,0,.18-.87l-.41-.59a.66507.66507,0,0,0-.35-.26l-2-.58-1.23-.36-1.04-.3a2.24142,2.24142,0,0,1-.44-.17,10.96793,10.96793,0,0,1-4-3.56995L15.1,28.47a2.86072,2.86072,0,0,1-.47-.89c-.01-.08-.02-.17.23-.33a3.15682,3.15682,0,0,1,2.82.59l2.52,3.69a.67208.67208,0,0,0,.9.17.602.602,0,0,0,.18005-.86L11.76,16.85a1.17038,1.17038,0,0,1,.39-1.63,1.25588,1.25588,0,0,1,1.71.28l5.2,7.67c.03.05.06.1.09.14l.86,1.26a.66462.66462,0,0,0,.9.18.61.61,0,0,0,.18006-.86l-.92-1.36a1.0742,1.0742,0,0,1-.1-.77,1.28518,1.28518,0,0,1,.55-.77,1.2454,1.2454,0,0,1,1.7.29l.81,1.17V22.46l.48.69a.65052.65052,0,0,0,.89.18.61158.61158,0,0,0,.18-.87L24.2,21.76a1.17234,1.17234,0,0,1,.4-1.62.0098.0098,0,0,0,.01-.01,1.65874,1.65874,0,0,1,.33-.15h.01a1.35461,1.35461,0,0,1,.6-.03,1.16623,1.16623,0,0,1,.75.48l.79,1.15c.00995.01.00995.02.02.03l.51.73v.01a.65774.65774,0,0,0,.89.17.60188.60188,0,0,0,.18-.86l-.52-.76a1.16867,1.16867,0,0,1,.41-1.61,1.32224,1.32224,0,0,1,.95-.19,1.11669,1.11669,0,0,1,.75.47l4.12,6.01a12.33539,12.33539,0,0,1,2.29,7.75c-.01.15-.03.3-.05.45a3.78658,3.78658,0,0,0,.32,2.72l1.83,3.18a.66683.66683,0,0,0,.57.32.71413.71413,0,0,0,.31-.08A.61942.61942,0,0,0,39.92,39.07ZM23.87,19.11a2.63012,2.63012,0,0,0-.9,1.01,2.60079,2.60079,0,0,0-3.92.75l-4.12-6.06a2.569,2.569,0,0,0-3.49-.64,2.39427,2.39427,0,0,0-.75,3.37l5.72,8.41a3.39519,3.39519,0,0,0-2.27.25,1.50917,1.50917,0,0,0-.78,1.57,3.49147,3.49147,0,0,0,.66,1.39l1.43,2.09H5.16a.62518.62518,0,1,0,0,1.25H16.13a.77617.77617,0,0,0,.16-.02l.97,1.41a12.184,12.184,0,0,0,4.48,3.99,3.52463,3.52463,0,0,0,.65.26l.74.22a2.09734,2.09734,0,0,1-1.1.39H3.23a1.91053,1.91053,0,0,1-1.94-1.88V3.12A1.90865,1.90865,0,0,1,3.23,1.25H21.94a1.90627,1.90627,0,0,1,1.93,1.87Z" fill="#252525"/><path d="M9.03253,20a.65187.65187,0,0,1-.48418-.21179A5.02669,5.02669,0,0,1,7.09674,16.25a5.72434,5.72434,0,0,1,5.80643-5.625,5.78671,5.78671,0,0,1,5.38367,3.51441.61809.61809,0,0,1-.35566.81359.65216.65216,0,0,1-.84015-.34484A4.50194,4.50194,0,0,0,12.90317,11.875,4.45243,4.45243,0,0,0,8.38706,16.25a3.81858,3.81858,0,0,0,1.129,2.71179.61137.61137,0,0,1-.057.882A.65452.65452,0,0,1,9.03253,20Z" fill="#252525"/><path d="M24.94,19.98a.58954.58954,0,0,1-.33.15A1.65874,1.65874,0,0,1,24.94,19.98Z" fill="#252525"/><path d="M19.99991,5.625H5.16127a.62531.62531,0,1,1,0-1.25H19.99991a.62531.62531,0,1,1,0,1.25Z" fill="#252525"/><path d="M14.83864,36.25H10.32253a.62531.62531,0,1,1,0-1.25h4.51611a.62531.62531,0,1,1,0,1.25Z" fill="#252525"/></g></svg>