<svg id="Layer_1" data-name="Layer 1" xmlns="http://www.w3.org/2000/svg" width="40" height="40" viewBox="0 0 40 40"><g id="app_development" data-name="app development"><polygon points="24.537 5 24.537 12.104 26.266 12.104 29.228 12.978 31.217 15.913 31.576 19.467 30.402 22.239 26.977 24.311 24.537 24.311 24.989 31.875 27.793 31.875 28.25 29.967 31.902 28.043 33.382 29.446 36.737 26.055 35.517 24.505 37.283 20.641 39.279 20.016 39.279 15.786 37.449 15.883 35.721 12.104 36.636 9.876 33.467 6.75 31.829 7.924 28.886 6.679 27.891 5.837 27.786 4.063 24.537 5" fill="#f2b705"/><path d="M15,36.25H10.625a.625.625,0,0,1,0-1.25H15a.625.625,0,0,1,0,1.25Z" fill="#252525"/><path d="M20.3125,33.125H5.625a.625.625,0,0,1,0-1.25H20.3125a.625.625,0,0,1,0,1.25Z" fill="#252525"/><path d="M5.625,11.25A.62464.62464,0,0,1,5,10.625V6.875A1.877,1.877,0,0,1,6.875,5h3.75a.625.625,0,0,1,0,1.25H6.875a.62542.62542,0,0,0-.625.625v3.75A.62464.62464,0,0,1,5.625,11.25Z" fill="#252525"/><path d="M5.625,20A.62464.62464,0,0,1,5,19.375v-3.75A1.877,1.877,0,0,1,6.875,13.75h3.75a.625.625,0,0,1,0,1.25H6.875a.62542.62542,0,0,0-.625.625v3.75A.62464.62464,0,0,1,5.625,20Z" fill="#252525"/><path d="M5.625,28.75A.62464.62464,0,0,1,5,28.125v-3.75A1.877,1.877,0,0,1,6.875,22.5h3.75a.625.625,0,0,1,0,1.25H6.875a.62542.62542,0,0,0-.625.625v3.75A.62464.62464,0,0,1,5.625,28.75Z" fill="#252525"/><path d="M15,11.25a.62464.62464,0,0,1-.625-.625V6.875A1.877,1.877,0,0,1,16.25,5H20a.625.625,0,0,1,0,1.25H16.25a.62542.62542,0,0,0-.625.625v3.75A.62464.62464,0,0,1,15,11.25Z" fill="#252525"/><path d="M15,20a.62464.62464,0,0,1-.625-.625v-3.75A1.877,1.877,0,0,1,16.25,13.75H20A.625.625,0,0,1,20,15H16.25a.62542.62542,0,0,0-.625.625v3.75A.62464.62464,0,0,1,15,20Z" fill="#252525"/><path d="M15,28.75a.62464.62464,0,0,1-.625-.625v-3.75A1.877,1.877,0,0,1,16.25,22.5H20a.625.625,0,0,1,0,1.25H16.25a.62542.62542,0,0,0-.625.625v3.75A.62464.62464,0,0,1,15,28.75Z" fill="#252525"/><path d="M38.75,15h-.89l-1.37-3.32.63-.63a1.25562,1.25562,0,0,0,0-1.76L34.46,6.63a1.25549,1.25549,0,0,0-1.76,0l-.63.63L28.75,5.89V5A1.25046,1.25046,0,0,0,27.5,3.75H25.62V3.12A3.124,3.124,0,0,0,22.5,0H3.12A3.124,3.124,0,0,0,0,3.12V36.87A3.12618,3.12618,0,0,0,3.12,40H22.5a3.12619,3.12619,0,0,0,3.12-3.13V32.5H27.5a1.25046,1.25046,0,0,0,1.25-1.25v-.89l3.32-1.37.63.63a1.25561,1.25561,0,0,0,1.76,0l2.65-2.66a1.21707,1.21707,0,0,0,.37-.88,1.24876,1.24876,0,0,0-.36-.88l-.63-.63,1.37-3.32h.89A1.25046,1.25046,0,0,0,40,20V16.25A1.25046,1.25046,0,0,0,38.75,15ZM24.38,36.87a1.88423,1.88423,0,0,1-1.88,1.88H3.12a1.87574,1.87574,0,0,1-1.87-1.88V3.12A1.87356,1.87356,0,0,1,3.12,1.25H22.5a1.88211,1.88211,0,0,1,1.88,1.87Zm1.24-24.35a5.61632,5.61632,0,0,1,0,11.21ZM38.75,20h-.89a1.22948,1.22948,0,0,0-1.15.77l-1.38,3.32a1.24775,1.24775,0,0,0,.27,1.36l.63.63-2.65,2.65-.63-.63a1.24778,1.24778,0,0,0-1.36-.27l-3.32,1.38a1.22953,1.22953,0,0,0-.77,1.15v.89H25.62V24.98a6.8647,6.8647,0,0,0,0-13.71V5H27.5v.89a1.2295,1.2295,0,0,0,.77,1.15l3.32,1.38a1.24756,1.24756,0,0,0,1.36-.27l.63-.63,2.65,2.65-.63.63a1.24765,1.24765,0,0,0-.27,1.36l1.38,3.32a1.22944,1.22944,0,0,0,1.15.77h.89Z" fill="#252525"/></g></svg>