<svg id="Layer_1" data-name="Layer 1" xmlns="http://www.w3.org/2000/svg" width="40" height="40" viewBox="0 0 40 40"><path d="M21.741,20.33617a5.89824,5.89824,0,0,1-5.30452,5.68109,6.67948,6.67948,0,0,0,1.1108.09415h0a5.97442,5.97442,0,0,0,6.18409-5.73991V15.59472H21.741Z" fill="#f2b705"/><path d="M18.50085,2.9263h0a6.45708,6.45708,0,0,0-.70781.03924A6.049,6.049,0,0,1,23.19711,9.023v3.01968h1.41555V9.023A6.06892,6.06892,0,0,0,18.50085,2.9263Z" fill="#f2b705"/><polygon points="34.92 22.8 27.363 30.034 30.331 33.694 32.939 31.957 33.691 30.034 35.739 29.374 36.723 27.418 39.263 25.966 34.92 22.8" fill="#f2b705"/><path d="M39.78451,25.726l-3.45723-3.254a1.79337,1.79337,0,0,0-2.4228,0l-5.70624,5.37H21.08481V25.764a6.376,6.376,0,0,0,3.38187-5.41V15.77h1.86577a2.10082,2.10082,0,0,0,2.26575-1.874,2.10088,2.10088,0,0,0-2.26575-1.876H25.432V9.092c0-3.374-2.73061-6.232-6.46218-7.136V.692A.5431.5431,0,0,0,18.4924.194a10.80688,10.80688,0,0,0-4.07708,0,.65932.65932,0,0,0-.34552.18.46349.46349,0,0,0-.134.318V1.956C10.20631,2.86,7.4736,5.718,7.4736,9.092V12.02H6.57317a2.10014,2.10014,0,0,0-2.26365,1.876A2.10008,2.10008,0,0,0,6.57317,15.77H8.441v4.584a6.37816,6.37816,0,0,0,3.37977,5.41v2.078H4.06243C1.82181,27.842,0,29.35,0,31.204V40H32.90562V32.908l.46279-.218a.71446.71446,0,0,0,.36854-.398l.57586-1.626,1.72757-.542a.72064.72064,0,0,0,.46489-.436L37.1,28.006l2.49608-1.174a.69274.69274,0,0,0,.39368-.506A.66037.66037,0,0,0,39.78451,25.726ZM24.62373,28.864h2.48771l-.68056.64-.13612.128-1.671,1.572ZM8.70909,9.092c0-2.806,2.18826-5.196,5.22669-6.062l.0021,2.444a.56713.56713,0,0,0,.62193.506h.01257a.56555.56555,0,0,0,.601-.506L15.17127,2.77V1.112a9.48315,9.48315,0,0,1,2.56309,0V5.478a.56625.56625,0,0,0,.61145.506h.01258a.56763.56763,0,0,0,.61145-.506V3.03c3.03845.866,5.2267,3.256,5.2267,6.062V12.02H8.70909ZM6.57317,14.748a.95666.95666,0,0,1-1.03026-.852.95527.95527,0,0,1,1.03026-.852H26.33245a.95529.95529,0,0,1,1.03028.852.95668.95668,0,0,1-1.03028.852Zm3.10126,5.606V15.77H23.23119v4.584a5.43092,5.43092,0,0,1-2.99027,4.652l-.10889.06c-.05445.03-.111.058-.16752.086-.08377.042-.16752.082-.25129.122l-.05654.024c-.07329.034-.14867.066-.22406.096-.023.008-.044.018-.067.026-.09006.036-.18219.072-.27642.104l-.03351.012c-.09.032-.18218.06-.27432.088q-.1162.036-.23243.066c-.04608.014-.09.026-.13612.036l-.01466.004c-.08375.02-.16752.04-.25337.058-.05864.012-.11726.024-.1759.034-.0356.008-.07119.014-.1068.02-.03979.008-.07956.016-.11935.02-.05235.01-.10679.018-.16124.026-.01047.002-.02095.002-.03142.004-.03769.006-.07538.01-.11307.014l-.01047.002c-.20522.024-.41043.042-.61774.05h-.03769c-.1047.006-.2115.008-.3183.008-.1026,0-.2094-.002-.312-.008h-.04607c-.111-.004-.222-.012-.33295-.022-.09423-.008-.18846-.016-.2806-.028H15.477l-.01466-.002c-.04817-.006-.09633-.012-.14239-.02-.05026-.006-.10053-.014-.15078-.022h-.0021c-.04606-.006-.09-.014-.1361-.024-.17171-.03-.33923-.064-.50467-.106L14.52,25.732c-.06281-.014-.12355-.03-.18427-.048q-.11-.027-.2136-.06c-.09213-.028-.18218-.058-.27222-.088l-.0335-.012c-.09423-.032-.18637-.068-.27641-.104-.023-.008-.044-.018-.067-.026-.07538-.03-.15078-.062-.22406-.096l-.05655-.024c-.08375-.04-.16752-.08-.25128-.122-.05653-.028-.11308-.056-.16752-.086l-.10888-.06A5.4309,5.4309,0,0,1,9.67443,20.354Zm10.177,6.008V28.65a3.15123,3.15123,0,0,1-3.39861,2.812A3.15049,3.15049,0,0,1,13.0563,28.65V26.362c.0335.014.067.026.1026.038.178.068.36017.128.54235.184.06074.02.12146.038.18428.054.12565.036.25128.068.37692.098.06283.014.12565.03.19056.042.05235.012.1068.024.16125.034.11307.022.22824.042.34341.06.06074.01.12146.018.1801.026.06281.008.12144.016.18427.024h.00209c.06283.008.12565.016.19056.02.06282.008.12564.012.19055.016.044.004.088.008.13193.01.08794.006.178.01.26594.014.11727.004.23244.006.3497.006.11936,0,.23663-.002.35389-.006.08795-.004.17381-.008.26176-.014.04607-.002.09-.006.13612-.01l.14657-.012c.08167-.008.16334-.016.245-.026.05862-.006.11517-.014.17379-.022.09843-.014.19684-.028.29527-.046.06491-.01.12983-.022.19474-.034.12983-.024.25756-.052.38321-.082q.11937-.027.23873-.06c.10888-.028.21777-.058.32457-.092.07957-.024.15915-.048.23663-.074.1026-.036.20521-.072.30572-.11C19.78233,26.388,19.81792,26.376,19.85142,26.362ZM5.23927,38.978H1.23548V31.204a2.622,2.622,0,0,1,2.827-2.34H5.23927Zm3.04472,0H6.47476V28.864H8.284Zm1.23339,0V28.864H11.8271c.00209.03.00628.06.00837.09a.03259.03259,0,0,0,.0021.014c.00418.04.00837.082.01466.122.00628.048.01256.096.023.142.01047.062.023.124.03769.184a.04524.04524,0,0,1,.00419.016q.022.087.05026.174l.00209.008c.01884.06.0377.118.06073.174.01675.05.03769.098.05864.146.01256.032.02721.062.04187.092.023.052.04817.102.07539.152.02094.042.04187.082.067.122.03351.06.06911.118.1068.176.03978.06.08167.12.12565.178.02512.036.05235.07.07957.102.02722.034.05443.066.08375.1.021.028.04818.058.0733.086.02931.034.05863.066.09.096a.13044.13044,0,0,0,.01674.018c.021.022.044.044.067.066.05027.05.10262.098.157.146a2.43123,2.43123,0,0,0,.19474.162c.04818.038.09633.074.14659.11.05654.042.11517.082.1759.122.044.028.08376.054.12774.08.07328.044.14868.088.22616.128.07538.042.15495.08.23453.118.05235.026.10679.05.16124.072.04816.022.09841.042.15076.062.07748.03.15706.058.23663.084a2.38723,2.38723,0,0,0,.24082.074c.05026.016.10261.03.15286.042q.10679.027.2136.048c.04187.01.08585.018.13191.026.02722.006.05654.01.08586.014.07748.012.157.024.23663.034.12354.016.24709.026.37273.032.02932.002.05864.004.09.004.067.002.134.004.201.004s.134-.002.201-.004c.03141,0,.06073-.002.09005-.004.12563-.006.24919-.016.37273-.032.07957-.01.15915-.022.23662-.034.02932-.004.05864-.008.08587-.014.04606-.008.09-.016.13192-.026q.10678-.021.21358-.048c.05027-.012.10262-.026.15288-.042a2.38844,2.38844,0,0,0,.2408-.074c.07958-.026.15915-.054.23663-.084.05235-.02.1026-.04.15078-.062.05444-.022.10888-.046.16123-.072.07957-.038.15915-.076.23453-.118.07749-.04.15287-.084.22616-.128.044-.026.08376-.052.12773-.08.0377-.024.0754-.05.111-.074q.1445-.099.27641-.21c.04607-.036.09-.074.13193-.112.044-.038.08585-.076.12564-.116.03351-.03.06491-.062.09633-.094s.06281-.066.09213-.1c.02931-.032.05863-.066.088-.1s.05654-.066.08377-.1c.02722-.032.05443-.066.07957-.102.044-.058.08585-.118.12564-.178.03769-.058.07328-.116.10679-.176.02513-.04.04607-.08.067-.122.02722-.05.05235-.1.07538-.152.01466-.03.02932-.06.04188-.092.02094-.048.04187-.096.05863-.146.023-.056.04188-.114.06073-.174l.00209-.008q.02828-.087.05026-.174a.04543.04543,0,0,1,.00418-.016c.01466-.06.02723-.122.03769-.184.01048-.046.01676-.094.023-.142.00627-.04.01046-.082.01464-.122a.03259.03259,0,0,0,.0021-.014c.0021-.03.00629-.06.00838-.09h2.30972v3.502l-1.58937,1.496a1.98632,1.98632,0,0,0,0,2.93l1.58937,1.496.73291.69Zm17.125-.56a.682.682,0,0,1-.2115.138.76489.76489,0,0,1-.82714-.138l-.98-.922-1.23548-1.162-.55074-.518a.66326.66326,0,0,1,0-.978l.55074-.518,1.23548-1.162,1.80715-1.702.3832-.36.85227.802.64077.602,1.4407,2.258a.66235.66235,0,0,1-.111.844l-1.97049,1.854Zm5.02776.56H28.12285l2.55054-2.4a1.97581,1.97581,0,0,0,.33085-2.53l-.11936-.19.78526-.37Zm4.50009-12.08a.70125.70125,0,0,0-.36646.4l-.57586,1.626-1.72758.54a.71888.71888,0,0,0-.46488.438l-.21568.61-.379,1.072-.77062.362-1.5433.726-.60726-.954a.76945.76945,0,0,0-.111-.134l-1.558-1.464,1.31924-1.24.92766-.874,4.84558-4.558a.25485.25485,0,0,1,.34552,0l2.739,2.578Z" fill="#252525"/><path d="M27.33341,34.514l-.90253.848-.48162.454a.76584.76584,0,0,1-1.03655,0,.66326.66326,0,0,1,0-.978l1.382-1.3a.63662.63662,0,0,1,.13612-.1.76871.76871,0,0,1,.90253.1A.661.661,0,0,1,27.33341,34.514Z" fill="#252525"/></svg>