<svg id="Layer_1" data-name="Layer 1" xmlns="http://www.w3.org/2000/svg" width="40" height="40" viewBox="0 0 40 40"><polygon points="31.094 23.756 26.66 27.356 34.799 34.611 39.181 30.619 31.094 23.756" fill="#f2b705"/><path d="M20.91314,20.39181a5.79633,5.79633,0,0,1-5.06633,5.68108,6.10039,6.10039,0,0,0,1.06092.09416h0a5.82493,5.82493,0,0,0,5.9064-5.73991V15.65035h-1.901Z" fill="#f2b705"/><path d="M17.81849,2.98194h0a5.89549,5.89549,0,0,0-.676.03923,5.95653,5.95653,0,0,1,5.1614,6.0575v3.01968h1.352V9.07867A5.93729,5.93729,0,0,0,17.81849,2.98194Z" fill="#f2b705"/><path d="M39.484,29.53735l-7.12712-6.19718a2.00909,2.00909,0,0,0-2.49438,0l-5.17533,4.50006H20.07548V25.762A6.41794,6.41794,0,0,0,23.294,20.3532V15.76854h1.77727a2.03281,2.03281,0,0,0,2.15638-1.87415,2.03289,2.03289,0,0,0-2.15638-1.875h-.85755V9.09083c0-3.37592-2.60171-6.23294-6.15323-7.13557V.69158a.53131.53131,0,0,0-.45534-.498,9.82942,9.82942,0,0,0-3.88251,0,.59879.59879,0,0,0-.327.17966.471.471,0,0,0-.12738.31832V1.95526c-3.55151.90263-6.15322,3.75965-6.15322,7.13557v2.92853H6.25754a2.03289,2.03289,0,0,0-2.15639,1.875,2.03281,2.03281,0,0,0,2.15639,1.87415H8.0348V20.3532a6.41793,6.41793,0,0,0,3.21854,5.4088v2.07823H3.86645A3.64511,3.64511,0,0,0,0,31.2022V40H31.32881V37.31043a3.09864,3.09864,0,0,0,2.45327-.64623L39.484,31.70628A1.39755,1.39755,0,0,0,39.484,29.53735Zm-16.04052-.67414h.23369a2.16066,2.16066,0,0,0-.23369.5189Zm0,1.759a2.32174,2.32174,0,0,0,.71713,1.084l.61782.53808a.20078.20078,0,0,1,.07322.16832.20566.20566,0,0,1-.09729.15872l-1.31088.88693ZM8.29156,9.09083A6.56235,6.56235,0,0,1,13.2683,3.028V5.47334a.55076.55076,0,0,0,.59377.50669h.011a.54772.54772,0,0,0,.57169-.50669l-.001-2.70528v-1.657a8.54346,8.54346,0,0,1,2.44123,0v1.657L16.884,5.476a.54734.54734,0,0,0,.58273.50669h.011a.54911.54911,0,0,0,.58272-.50582V3.028a6.56233,6.56233,0,0,1,4.97675,6.06288v2.92853H8.29156Zm-2.034,5.6556a.924.924,0,0,1-.97991-.852.92343.92343,0,0,1,.97991-.85205H25.07128a.92341.92341,0,0,1,.97989.85205.924.924,0,0,1-.97989.852ZM9.21129,20.3532V15.76854H22.11752V20.3532a5.4828,5.4828,0,0,1-2.97782,4.72595c-.04312.02528-.08726.04883-.13139.07151-.04312.02354-.08625.04622-.13038.06627l-.01.00524-.014.007c-.03811.02-.07722.03924-.11634.05668-.05015.02442-.1013.048-.15245.06977l-.014.007c-.02809.01308-.05717.02529-.08626.03663-.015.007-.03009.01308-.04613.01918-.03511.0157-.07021.03053-.10632.04361l-.007.00261c-.015.00611-.02909.01222-.04313.01658l-.01805.007c-.05216.02093-.10431.041-.15747.05843l-.03811.01308c-.03811.01483-.07623.027-.11434.03925-.012.00436-.02407.00872-.03611.01221-.06218.02005-.12337.03924-.18655.05755-.02006.00611-.04012.01222-.06018.01745l-.02507.007c-.04012.01133-.07924.0218-.12036.03226-.0321.0096-.06419.01745-.09729.02529-.0361.0096-.07322.01832-.11033.02617l-.0682.0157q-.06168.01438-.12336.02616l-.02006.00436c-.04112.00785-.08124.0157-.12236.02267-.01706.00349-.03511.007-.05216.0096-.04212.00785-.08425.01483-.12738.02093l-.10531.0157h-.003c-.02809.00436-.05517.00784-.08225.01133l-.04313.00523-.08626.01047c-.06218.007-.12436.01308-.18755.01831-.04514.00436-.09127.00786-.13741.01047-.03811.00262-.07622.00523-.11434.007l-.02206.00087c-.02407.00175-.04814.00261-.07222.00349-.0351.00087-.0702.00262-.10531.00262-.06017.00174-.12135.00261-.18154.00261s-.12135-.00087-.18153-.00261c-.0351,0-.07021-.00175-.10531-.00262-.02407-.00088-.04814-.00174-.07221-.00349l-.02207-.00087c-.03812-.00175-.07623-.00436-.11434-.007-.04614-.00261-.09228-.00611-.13741-.01047-.06319-.00523-.12537-.01133-.18756-.01831l-.08625-.01047-.04313-.00523c-.02708-.00349-.05416-.007-.08224-.01133h-.003l-.10531-.0157c-.04313-.0061-.08525-.01308-.12738-.02093-.017-.00262-.0351-.00611-.05215-.0096-.04113-.007-.08124-.01482-.12237-.02267l-.02-.00436q-.0617-.01178-.12337-.02616l-.0682-.0157c-.03711-.00785-.07422-.01657-.11033-.02617-.0331-.00784-.06519-.01569-.09729-.02529-.04112-.01046-.08024-.02093-.12036-.03226l-.02507-.007c-.02006-.00523-.04012-.01134-.06018-.01745-.06319-.01831-.12437-.0375-.18655-.05755-.012-.00349-.02407-.00785-.0361-.01221-.03812-.01221-.07623-.02442-.11434-.03925l-.03812-.01308c-.05316-.01744-.10531-.0375-.15747-.05843l-.01805-.007c-.014-.00436-.02808-.01047-.04313-.01658l-.007-.00261c-.0361-.01308-.07121-.02791-.10631-.04361-.016-.0061-.03109-.0122-.04614-.01918-.02908-.01134-.05817-.02355-.08625-.03663l-.014-.007c-.05115-.0218-.1023-.04535-.15245-.06977-.03911-.01744-.07823-.03663-.11634-.05668l-.014-.007-.01-.00524c-.04413-.02005-.08726-.04273-.13039-.06627-.04413-.02268-.08826-.04623-.13139-.07151A5.4828,5.4828,0,0,1,9.21129,20.3532Zm9.6877,6.00794V28.6478a3.049,3.049,0,0,1-3.23459,2.81254,3.049,3.049,0,0,1-3.23458-2.81254V26.36114c.03009.01221.06018.02442.09027.03576l.012.00436q.08274.0327.16549.06279c.05015.01831.09929.03663.15045.05407.05415.01918.10831.0375.16347.05494.04614.01483.09228.02965.13942.04361.0341.01046.0682.02093.1023.02965.09328.02791.18655.05319.28083.07674.03711.00959.07322.01832.11033.027l.017.00348c.04614.01134.09328.02181.13942.03228.06318.014.12737.027.19056.03924l.011.00262.004.00087.03409.00611c.05517.01046.11033.02.1665.02964.0682.01134.1354.02268.2046.03227h.002c.0341.00523.0682.00959.1013.014.0351.00436.06921.00959.10331.01308.0351.00436.0692.00872.10331.01221l.1043.01046c.03411.00349.0682.00611.10231.00959l.10631.00785c.02909.00175.05717.00436.08626.00611.04111.00261.08224.00436.12336.00611.0692.00348.13941.0061.20962.00784s.14042.00262.21062.00262.14042-.00087.21063-.00262.14041-.00436.20962-.00784c.04112-.00175.08224-.0035.12337-.00611.02908-.00175.05716-.00436.08625-.00611l.10632-.00785c.0341-.00348.0682-.0061.1023-.00959l.10431-.01046c.0341-.00349.0682-.00785.1033-.01221.03411-.00349.0682-.00872.10331-.01308.0331-.00437.0672-.00873.1013-.014h.002c.06921-.00959.13641-.02093.20461-.03227.05617-.00959.11133-.01918.1665-.02964l.0341-.00611.004-.00087.011-.00262c.06319-.01221.12738-.02529.19057-.03924.04614-.01047.09327-.02094.13941-.03228l.01705-.00348c.03711-.00872.07321-.01745.11032-.027.07623-.01918.15246-.03924.22768-.06105l.05316-.01569c.0341-.00872.0682-.01919.1023-.02965.04714-.014.09328-.02878.13941-.04361.05517-.01744.10933-.03576.16349-.05494.05115-.01744.1003-.03576.15045-.05407q.08274-.03009.16549-.06279l.012-.00436C18.83881,26.38556,18.8689,26.37335,18.899,26.36114ZM4.98777,38.977H1.17549V31.2022a2.53663,2.53663,0,0,1,2.691-2.339H4.98777Zm2.89759,0H6.16426V28.86321h1.7211ZM20.31318,36.8517a2.73942,2.73942,0,0,0,.81943,2.12532H9.06185V28.86321h2.19851c.004.07151.011.143.02106.21367.003.02529.006.05058.01.07587q.01956.13342.05115.26425c.007.03052.01505.06017.02307.08982.008.03053.016.06018.02508.08983q.012.04448.02708.089c.009.02965.01905.05843.02908.08721.016.04622.03411.09244.05216.13779l.03309.07936c.01806.041.03611.08285.05617.123.013.027.02608.05319.03912.07936q.02106.04317.04513.08634.02106.04054.04513.0811c.013.02268.02608.04448.04012.06716.013.02267.02708.04447.04213.06715.04011.06453.08324.1282.12838.19012a.5771.5771,0,0,0,.0361.04883c.02408.03227.04915.06454.07423.09594.02507.03227.05015.06366.07722.09418.02608.03053.05216.061.07924.0907.02808.0314.05617.06105.08425.0907.04012.041.08023.08111.12136.12035l.014.014c.04413.041.08726.08023.13239.11948.05015.0436.1013.08546.15346.12732l.004.00349c.05014.03924.1023.07849.15446.11686.013.00873.02607.01832.03911.02616.02106.01571.04213.03053.06419.04448.02106.01483.04313.02966.0652.04361.02106.01395.04413.02878.06619.04186.014.00959.03009.01919.04513.02791.03009.01831.06019.03663.09027.05407q.05417.03139.10832.06017c.07422.041.14945.07937.22667.11512.01806.00872.03511.01744.05417.02529.02908.014.05816.027.08826.03925q.07221.0314.14443.06017c.07522.02965.15144.05756.22967.08285q.04815.017.09629.0314c.03209.01047.06519.02006.09729.02965.05616.01657.11434.03227.17251.04622l.04313.01047a.4047.4047,0,0,0,.04413.01046c.02908.007.05817.01308.08726.01919.03811.00872.07722.01657.11634.02355.02207.00436.04513.00784.0682.01221.05015.00872.1003.01657.15145.02354.03811.00523.07522.01046.11334.01483.02006.00261.04112.00523.06218.007l.08124.00785c.02307.00262.04514.00436.0682.00524l.02308.00174q.04512.00393.09026.00523c.04513.00349.09027.00524.1364.00611.04413.00087.08826.00174.13239.00174s.08827-.00087.1324-.00174c.04614-.00087.09127-.00262.1364-.00611q.04514-.00131.09027-.00523c.03009-.00174.06118-.00436.09127-.007.05015-.00436.0993-.00959.14844-.01569.02909-.0035.05917-.007.08826-.01134.03812-.00436.07622-.01047.11334-.01657.05015-.00785.1003-.01657.14944-.02616l.07623-.0157c.08124-.0157.16148-.03489.2397-.05582.03812-.00959.07523-.02005.11234-.03052l.08826-.02617c.0331-.00959.06519-.02.09729-.03139.05516-.01744.10932-.03663.16248-.05669.04413-.01657.08826-.034.13239-.05145.02909-.01134.05717-.02355.08525-.03576q.03762-.01571.07222-.03139c.02908-.01308.05717-.02529.08425-.03925.09929-.04622.19658-.0968.29086-.15.02908-.01657.05717-.03314.08525-.04971.08625-.05058.1695-.10378.25074-.1596.03009-.02.05918-.041.08827-.06279l.02407-.01657.04513-.034c.018-.01308.03611-.027.05316-.041.018-.014.0351-.0279.05215-.04186.03511-.02791.06921-.05669.10331-.08547a3.65682,3.65682,0,0,0,.29086-.27384c.02207-.02267.04313-.04534.06419-.06889.02207-.02268.04313-.04623.06319-.06977.01805-.02006.0351-.041.05215-.061.011-.01221.02207-.02529.0321-.03837a.391.391,0,0,0,.02507-.03053l.011-.01482c.01905-.02355.0371-.04709.05516-.07064.02407-.03052.04714-.06192.0682-.09332.014-.01918.02708-.03837.04012-.05756.02106-.02965.04112-.0593.05917-.08983.02508-.03837.04815-.07587.07122-.11424l.002-.00261c.02106-.0375.04313-.07588.06419-.11425.01906-.034.03711-.0689.05416-.10378.02407-.048.04714-.09594.0682-.14477a3.551,3.551,0,0,0,.1324-.34448c.01905-.05931.03711-.11774.05215-.17791.012-.04448.02307-.08983.0331-.13518s.01905-.0907.02708-.13692c.005-.02791.01-.05582.014-.08285.004-.02529.007-.05058.01-.07587.01-.07064.01705-.14216.02106-.21367H22.267v5.39048l-.6389.43257A2.88817,2.88817,0,0,0,20.31318,36.8517ZM30.15333,38.977H26.331l.01-.01046c.0321-.03314.06319-.06716.09428-.10117L28.86752,36.147a.25858.25858,0,0,1,.18254-.08373.27671.27671,0,0,1,.19458.06367l.61783.53722a2.473,2.473,0,0,0,.29086.21715Zm2.55958-3.24249a1.441,1.441,0,0,1-1.3841.22762,1.2187,1.2187,0,0,1-.39717-.22762l-.61884-.53722a1.55226,1.55226,0,0,0-.15947-.12209,1.94284,1.94284,0,0,0-1.19755-.32442,1.85378,1.85378,0,0,0-1.2818.58954L26.341,36.8299l-1.09925,1.22879c-.02508.02791-.05015.05407-.07723.08024a2.02958,2.02958,0,0,1-1.31389.55814,2.1812,2.1812,0,0,1-.40721-.01482,2.03182,2.03182,0,0,1-1.06516-.46832c-.03911-.034-.07622-.06977-.11132-.1064a1.52648,1.52648,0,0,1-.44532-1.17385,1.55484,1.55484,0,0,1,.44532-.96717,1.78074,1.78074,0,0,1,.28986-.24331l.88662-.6,1.7211-1.16426.51753-.34972a1.50641,1.50641,0,0,0,.659-.96281v-.49186a1.47718,1.47718,0,0,0-.49346-.83984l-.61883-.53809c-.02307-.02006-.04413-.04011-.06419-.061a.991.991,0,0,1,0-1.42677c.02006-.02093.04112-.041.06419-.061l.92775-.80669a.64015.64015,0,0,0,.14242.18662l.04212.03663.25175.2189,3.56055,3.09685,1.17548,1.02211,2.09621,1.8227a.78008.78008,0,0,0,.21464.12384Zm5.70189-4.95792-3.77819,3.28522a.652.652,0,0,0-.14242-.18663L31.32781,31.122,27.55463,27.8411l-.18756-.16308a.76046.76046,0,0,0-.21363-.12384l3.7782-3.28522a.23171.23171,0,0,1,.356.00087L38.4148,30.467A.19939.19939,0,0,1,38.4148,30.77661Z" fill="#252525"/></svg>