<svg id="Layer_1" data-name="Layer 1" xmlns="http://www.w3.org/2000/svg" width="40" height="40" viewBox="0 0 40 40"><g id="react_developer" data-name="react developer"><polygon points="6.25 25 13.75 25 15 29.329 17.939 31.701 21.318 31.701 25.056 29.545 26.25 26.166 26.25 25 33.75 25 33.75 27.748 31.597 28.351 30.232 31.701 31.31 33.75 28.075 36.805 26.565 35.871 22.684 37.308 22.181 39.393 17.652 39.393 17.364 37.668 13.125 35.799 11.875 36.949 8.75 33.75 9.673 32.196 9.673 31.414 8.379 28.323 6.25 28.107 6.25 25" fill="#f2b705"/><path d="M21.875,40h-3.75a1.25162,1.25162,0,0,1-1.25-1.25v-.88928l-3.31726-1.3739-.62927.62866a1.25176,1.25176,0,0,1-1.76758,0L8.50952,34.46411a1.25065,1.25065,0,0,1,0-1.76758l.62866-.62927-1.3739-3.31665L6.875,28.75a1.25162,1.25162,0,0,1-1.25-1.25V25.625a.625.625,0,0,1,1.25,0V27.5h.88928a1.24744,1.24744,0,0,1,1.15479.77148l1.3739,3.31727a1.24551,1.24551,0,0,1-.271,1.3623l-.62866.62927,2.65137,2.65137L12.674,35.603a1.24432,1.24432,0,0,1,1.36292-.271l3.316,1.3739a1.24551,1.24551,0,0,1,.77209,1.15479V38.75h3.75v-.88928a1.24633,1.24633,0,0,1,.77209-1.1554l3.316-1.37329a1.24487,1.24487,0,0,1,1.36231.271l.62927.62866,2.652-2.65137-.62927-.62927a1.24629,1.24629,0,0,1-.271-1.36292l1.3739-3.316A1.24707,1.24707,0,0,1,32.23511,27.5H33.125V25.625a.625.625,0,0,1,1.25,0V27.5a1.25162,1.25162,0,0,1-1.25,1.25h-.88989l-1.3739,3.31726.62927.62927a1.25269,1.25269,0,0,1,.00061,1.767l-2.65259,2.652a1.25176,1.25176,0,0,1-1.76758,0l-.62927-.62866L23.125,37.86072V38.75A1.25162,1.25162,0,0,1,21.875,40Z" fill="#252525"/><path d="M20,32.5a6.88278,6.88278,0,0,1-6.875-6.875.625.625,0,0,1,1.25,0,5.625,5.625,0,0,0,11.25,0,.625.625,0,0,1,1.25,0A6.88278,6.88278,0,0,1,20,32.5Z" fill="#252525"/><path d="M38.12,0H1.88A1.87782,1.87782,0,0,0,0,1.88v30a1.87574,1.87574,0,0,0,1.88,1.87H3.75a.625.625,0,1,0,0-1.25H1.88a.62533.62533,0,0,1-.63-.62V7.5h37.5V31.88a.62533.62533,0,0,1-.63.62H36.25a.625.625,0,1,0,0,1.25h1.87A1.87574,1.87574,0,0,0,40,31.88v-30A1.87782,1.87782,0,0,0,38.12,0ZM1.25,6.25V1.88a.62738.62738,0,0,1,.63-.63H38.12a.62738.62738,0,0,1,.63.63V6.25Z" fill="#252525"/><path d="M5,4.375H3.75a.625.625,0,0,1,0-1.25H5a.625.625,0,0,1,0,1.25Z" fill="#252525"/><path d="M8.125,4.375H6.875a.625.625,0,0,1,0-1.25h1.25a.625.625,0,0,1,0,1.25Z" fill="#252525"/><path d="M16.25,15H9.375a.625.625,0,0,1,0-1.25H16.25a.625.625,0,0,1,0,1.25Z" fill="#252525"/><path d="M16.25,21.25H9.375a.625.625,0,0,1,0-1.25H16.25a.625.625,0,0,1,0,1.25Z" fill="#252525"/><path d="M32.5,15H20a.625.625,0,0,1,0-1.25H32.5a.625.625,0,0,1,0,1.25Z" fill="#252525"/><path d="M32.5,21.25H20A.625.625,0,0,1,20,20H32.5a.625.625,0,0,1,0,1.25Z" fill="#252525"/></g></svg>