<svg id="Layer_1" data-name="Layer 1" xmlns="http://www.w3.org/2000/svg" width="40" height="40" viewBox="0 0 40 40"><polygon points="25.692 27.003 34.591 20.972 36.536 16.281 39.211 3.07 34.008 2.017 32.61 8.191 28.561 14.27 27.929 18.483 28.78 20.03 24.865 24.227 24.865 25.854 25.692 27.003" fill="#f2b705"/><polygon points="14.316 27.003 5.417 20.972 3.472 16.281 0.797 3.07 6 2.017 7.398 8.191 11.447 14.27 12.079 18.483 11.228 20.03 15.143 24.227 15.143 25.854 14.316 27.003" fill="#f2b705"/><path d="M39.10658,2.34863c-.33556-.07342-.67111-.1321-1.00667-.19083-1.29-.22017-2.56507-.46239-3.855-.66057a.97215.97215,0,0,0-1.208.88809c-.17148.91743-.32809,1.83486-.49957,2.75229-.18642,1.04954-.3803,2.09173-.5891,3.222-.06709-.15414-.10441-.22022-.13422-.29359A12.43992,12.43992,0,0,0,23.03759.367C22.4038.19818,21.74762.12476,21.10636,0H18.80225a14.35784,14.35784,0,0,0-1.69261.33763c-.74566.23482-1.47644.49908-2.20717.778a.05874.05874,0,0,0-.02239.0073c-.00742,0-.01488.00735-.02981.00735-.1044.044-.20134.08072-.3057.11746a.95968.95968,0,0,0-.16407.066c-.03727.01469-.07454.02938-.11928.05138a.26812.26812,0,0,0-.06713.02934,10.83558,10.83558,0,0,0-2.91551,2.04039l.00747.00734A12.24352,12.24352,0,0,0,8.24374,7.88256c-.05966.13945-.11933.27156-.21622.47708-.358-2.01834-.71585-3.956-1.05887-5.8936A1.05473,1.05473,0,0,0,5.5892,1.50458Q3.25153,1.9009.92883,2.34129A.992.992,0,0,0,.049,3.70641c1.0439,4.57247,2.0953,9.145,3.12431,13.72478a7.57,7.57,0,0,0,2.95278,4.64589q3.46736,2.51006,6.93467,5.01281a1.97354,1.97354,0,0,0,1.372.48443c0,.68991-.00746,1.35043.00747,2.011a.55188.55188,0,0,1-.4847.60919c-.7158.17614-1.41672.39631-2.12511.60184a18.6211,18.6211,0,0,0-5.1898,2.13576,6.08768,6.08768,0,0,0-2.98264,5.666A1.36829,1.36829,0,0,0,5.08216,40H34.9234a1.22552,1.22552,0,0,0,1.32729-1.04219A7.00534,7.00534,0,0,0,36.206,36.9835,6.13629,6.13629,0,0,0,32.843,32.63121c-.02235-.01469-.04474-.02939-.07455-.05138-.11187-.06608-.32809-.17619-.62638-.32294a16.39369,16.39369,0,0,0-3.12431-1.20368c-1.00662-.28625-2.01329-.5725-3.01244-.88809-.179-.05868-.41757-.26421-.425-.41835-.0522-.71191-.02239-1.42386-.02239-2.16511a2.08375,2.08375,0,0,0,1.39438-.50642c2.28918-1.66607,4.58582-3.3101,6.86754-4.96882a7.10839,7.10839,0,0,0,2.841-4.14681c.40264-1.65137.77546-3.30275,1.15576-4.96143.72331-3.11926,1.4317-6.23853,2.1475-9.36514A.99236.99236,0,0,0,39.10658,2.34863ZM25.59524,3.72111c1.17811-.4257,1.17811-.433,2.11018.411a11.26735,11.26735,0,0,1,3.31073,5.31376.61242.61242,0,0,1-.1044.60918c-.425.54312-.82767,1.10827-1.2527,1.68072-1.80448-4.1688-5.05555-5.92294-9.55936-5.622a1.18,1.18,0,0,0-.01488-.16149q2.70672-1.10091,5.39857-2.19449A.66112.66112,0,0,1,25.59524,3.72111Zm2.2444,15.98529c.26847.27156.20134.46239-.02981.69726q-1.38692,1.38717-2.77383,2.789a2.92111,2.92111,0,0,0-.83518,1.46789.51563.51563,0,0,1-.20876.30829,8.46063,8.46063,0,0,1-4.23534,1.20364,9.022,9.022,0,0,1-3.79542-1.22568.45743.45743,0,0,1-.17149-.28625,2.93471,2.93471,0,0,0-.81279-1.44585c-.91715-.91743-1.82683-1.84221-2.744-2.75964-.3579-.35962-.3579-.41835-.02981-.8a1.95873,1.95873,0,0,0,.44738-1.71006c-.2013-1.12295-.41757-2.24587-.604-3.36882a2.78106,2.78106,0,0,0-.604-1.32844.7484.7484,0,0,1-.1044-.52112,4.51378,4.51378,0,0,1,1.72994-2.4,22.37227,22.37227,0,0,1,4.31739-2.8844,2.04228,2.04228,0,0,1,.87987-.16149c.58159-.022,1.16323-.00735,1.74482-.00735a10.98065,10.98065,0,0,1,3.87743.38167,7.14686,7.14686,0,0,1,4.76478,5.10827c.02981.11741.04473.29355-.0224.35963a4.236,4.236,0,0,0-.85748,2.45135c-.13421.778-.28335,1.556-.43249,2.33394A1.91982,1.91982,0,0,0,27.83964,19.7064ZM8.9894,9.39449a11.39083,11.39083,0,0,1,3.25853-5.233s.0522-.05139.14168-.13211a12.249,12.249,0,0,1,2.46813-1.644.834.834,0,0,1,.11928-.05138c.19388-.09542.38776-.18349.59656-.26421a11.40933,11.40933,0,0,1,8.53776-.1248c.41015.15414.80533.35232,1.29.56515-.21627.08072-.32062.12476-.425.16149a54.47012,54.47012,0,0,0-9.67864,4.6018,13.29749,13.29749,0,0,0-4.95865,4.4771c-.41756-.55781-.81278-1.11561-1.23035-1.644A.70874.70874,0,0,1,8.9894,9.39449Zm4.90645,16.82935c-2.39358-1.73945-4.802-3.45685-7.1807-5.20365a6.58988,6.58988,0,0,1-2.43832-4.1468C3.315,12.5211,2.30828,8.17616,1.30913,3.83117c-.0746-.30824-.00747-.367.29077-.411,1.372-.22752,2.74406-.48438,4.16825-.74129.25355,1.37252.49958,2.69361.7382,4.02205.14167.76329.261,1.53392.41756,2.28991A1.24833,1.24833,0,0,0,7.17,9.47521c1.126,1.52662,2.26679,3.03854,3.35547,4.5945a3.1919,3.1919,0,0,1,.4101,1.18164c.19388.96882.35049,1.945.522,2.91379a.81208.81208,0,0,1-.61144.98346.78255.78255,0,0,1-.95442-.66052c-.24608-1.25507-.46977-2.51743-.70092-3.78719-.05967-.30824-.14915-.5798-.522-.64587a.58454.58454,0,0,0-.70093.66791c.23862,1.35044.47724,2.70826.75313,4.05139a1.87469,1.87469,0,0,0,1.715,1.54127c.2535.03669.40264.10276.45484.37432a.95365.95365,0,0,0,.29829.40366C12.151,22.06238,13.11287,23.02385,14.0748,24a1.70849,1.70849,0,0,1,.37283,2.09907C14.29849,26.37064,14.15681,26.41467,13.89585,26.22384Zm14.98026,6.0257a.13983.13983,0,0,1,.05221.0147c.0522.01464.13421.03668.25354.066a15.48785,15.48785,0,0,1,2.59488,1.06423l.04474.022.31316.17618c.19388.11007.38776.22018.57417.34494a4.72931,4.72931,0,0,1,2.39358,4.3009c-.02239.60184,0,.60184-.604.60184H5.49226c-.1044,0-.23115.03669-.31316-.00734-.11187-.066-.26847-.17614-.27589-.2789A4.58107,4.58107,0,0,1,6.0217,35.00918a8.514,8.514,0,0,1,3.691-2.26791c1.49878-.51377,3.02737-.95412,4.556-1.40916a1.598,1.598,0,0,0,1.34964-1.78348c0-.96147,0-1.92293.00742-2.89174a2.52461,2.52461,0,0,1,.08206-.48443,10.17075,10.17075,0,0,0,4.28754,1.19633,10.18727,10.18727,0,0,0,4.30988-1.20368c.02239.21287.05967.38167.05967.54316v3.00915a1.56646,1.56646,0,0,0,.04473.41836A1.52777,1.52777,0,0,0,25.543,31.28073C26.65407,31.611,27.75763,31.92661,28.87611,32.24954Zm9.358-26.466q-1.331,5.83485-2.6769,11.6697a6.02342,6.02342,0,0,1-2.36372,3.62569c-2.35631,1.7248-4.7275,3.42021-7.08376,5.13761-.28336.20553-.425.15415-.58164-.1321a1.71473,1.71473,0,0,1,.37283-2.077c.95447-.96882,1.93128-1.923,2.8857-2.8991a5.01591,5.01591,0,0,0,.35048-.55045c.05216-.07343.12675-.19084.19384-.19818,1.37949-.11742,1.894-.99081,2.08041-2.20919.164-1.11556.38771-2.21648.58159-3.33209a.57867.57867,0,0,0-.4623-.76333.60326.60326,0,0,0-.72327.55046c-.22369,1.211-.44,2.422-.64872,3.64038-.09694.5798-.358.88809-.79786.91009a.8016.8016,0,0,1-.85006-.93208c.22369-1.211.44738-2.42206.67853-3.633a1.14055,1.14055,0,0,1,.20134-.455c.9992-1.37248,1.98348-2.75964,3.02737-4.09543A4.27309,4.27309,0,0,0,33.25313,8.022c.29082-1.76878.62637-3.52292.96193-5.34314,1.52113.2716,3.01244.52847,4.53357.8C38.57714,4.27157,38.41312,5.02751,38.23413,5.78349Z"/><path d="M20.97623,22.24451a4.42914,4.42914,0,0,1-1.97428-.00028c-.42242-.09674-.8378-.19568-1.24775-.313a.59214.59214,0,0,1-.44406-.81549c.1323-.3344.49877-.45417.93037-.25839a4.72881,4.72881,0,0,0,3.60632-.04153.59827.59827,0,0,1,.8333.318.583.583,0,0,1-.42847.79277C21.8316,22.04513,21.40642,22.14606,20.97623,22.24451Z"/><path d="M14.65516,14.55862a2.56,2.56,0,0,1,1.68321-.00556c.18939.0655.37324.13483.55136.21627a.56047.56047,0,0,1,.29666.8118.59465.59465,0,0,1-.84624.21994,1.72625,1.72625,0,0,0-1.66484-.00611.58964.58964,0,0,1-.86314-.22827.53692.53692,0,0,1,.27927-.78264C14.274,14.69923,14.46251,14.62672,14.65516,14.55862Z"/><path d="M23.60112,14.57236a2.59288,2.59288,0,0,1,1.76073-.00264c.18768.06771.36974.13926.5461.2225a.53543.53543,0,0,1,.258.78886.58262.58262,0,0,1-.81524.23509,1.65287,1.65287,0,0,0-1.75094.00849.55705.55705,0,0,1-.78613-.2256.53383.53383,0,0,1,.22885-.79681C23.22333,14.71613,23.41007,14.642,23.60112,14.57236Z"/><path d="M32.85049,32.62386l-.00746.00735c-.02235-.01469-.04474-.02939-.07455-.05138C32.82068,32.60917,32.85049,32.62386,32.85049,32.62386Z"/><path d="M14.85027,1.13026c-.1044.044-.20134.08072-.3057.11746A1.83954,1.83954,0,0,1,14.85027,1.13026Z"/></svg>