<svg id="Layer_1" data-name="Layer 1" xmlns="http://www.w3.org/2000/svg" width="40" height="40" viewBox="0 0 40 40"><path d="M25.74234,30.37005l.28625-4.92832s9.971-.48317,9.971,0V37.90747l-2.14687,1.54614H28.08005L25.74234,37.4243Z" fill="#f2b705"/><path d="M39.98531,1.215c0-.852-.35844-1.215-1.21432-1.215H23.57714c-.87052,0-1.229.36306-1.229,1.24464V23.22592a.64377.64377,0,0,0-.00733.11852c.00733,2.19295.00733,4.37849.00733,6.5714v.4223H14.41844c0-.94091.0146-1.85215,0-2.76339a2.22331,2.22331,0,0,0-2.42141-2.3263c-.84123.08148-1.6825.14818-2.52373.21483-2.36287.163-4.72569.31861-7.08851.489a2.34627,2.34627,0,0,0-1.81422.652A7.29094,7.29094,0,0,0,0,27.51547V34.398a.67616.67616,0,0,1,.08046.11856A1.91306,1.91306,0,0,0,1.79958,35.9094c.9583.0889,1.9166.14818,2.8749.22225,1.27285.09631,2.53838.19263,3.81123.28153,1.24361.09631,2.48721.20742,3.73814.25928a2.0881,2.0881,0,0,0,2.14337-1.88176c.05122-.46675.04389-.94091.05122-1.415.00727-.59272,0-1.1854,0-1.78549h7.8712a13.90178,13.90178,0,0,0,.19021,1.71138A5.02058,5.02058,0,0,0,25.00363,36.465a.5825.5825,0,0,1,.33652.46675,2.11948,2.11948,0,0,0,.77541,1.45947,7.7579,7.7579,0,0,0,1.763,1.04463,9.53581,9.53581,0,0,0,4.64523.47412,7.56725,7.56725,0,0,0,2.82368-.84455,2.926,2.926,0,0,0,1.58009-1.85956,1.08231,1.08231,0,0,1,.65839-.89645c.0146-.00742.02192-.01479.03657-.0222A4.93955,4.93955,0,0,0,40,31.90875C39.97071,21.67751,39.98531,11.44626,39.98531,1.215ZM13.2114,34.3684a.98331.98331,0,0,1-1.1924,1.08909c-2.019-.14818-4.04537-.27412-6.06435-.4223-1.346-.09631-2.692-.20746-4.04537-.31119a.82644.82644,0,0,1-.74618-.89641c-.00727-.64454-.00727-4.45256,0-5.10452v-.163c0-.15559-.00727-.31119,0-.46674a.85868.85868,0,0,1,.87785-.90387c2.06291-.14818,4.1185-.31115,6.18142-.45933,1.28017-.0889,2.56767-.18521,3.84784-.25186.7681-.0445,1.14119.32593,1.14119,1.09645Zm12.09946.79273A3.40865,3.40865,0,0,1,23.55521,31.605a1.53813,1.53813,0,0,1,1.63862.45191.36874.36874,0,0,1,.117.22225C25.31818,33.24229,25.31086,34.198,25.31086,35.16113Zm.36576-4.28955c.65107-.19263,1.229-.41488,1.82882-.54086a8.264,8.264,0,0,1,3.04318-.22966c.256.037.3292.13335.32188.37784-.022.4223-.00733.83717-.00733,1.2743C29.46593,32.07918,26.51789,31.605,25.67662,30.87158Zm10.1829,5.60088a1.61751,1.61751,0,0,1-.84127,1.3854,5.23356,5.23356,0,0,1-2.14337.77048,9.15012,9.15012,0,0,1-4.72569-.3556,4.72908,4.72908,0,0,1-.89977-.46674,1.67275,1.67275,0,0,1-.77542-1.49655c.02193-1.215.00733-2.42258.00733-3.682a12.65945,12.65945,0,0,0,1.55816.2889,22.35166,22.35166,0,0,0,2.90414.02966c.80466-.0667,1.11194-.526,1.11194-1.33354,0-.46674.00732-.92607,0-1.3854-.00732-.66679-.22677-1.06683-.8632-1.178a11.75552,11.75552,0,0,0-2.39211-.12593,19.62889,19.62889,0,0,0-2.297.35559c0-.037-.02192-.08889-.02192-.14818,0-.92607.00732-1.84472,0-2.7708-.00733-.30373.10238-.45932.43157-.45932q4.24651.01112,8.50768,0c.32187,0,.43894.13334.43894.45191Zm2.97-34.85q0,15.22464-.00733,30.4567a3.87924,3.87924,0,0,1-.161,1.12607,3.66346,3.66346,0,0,1-1.63861,2.02995V34.724q0-4.234-.00732-8.468a1.4536,1.4536,0,0,0-1.52155-1.57061q-4.33432-.01113-8.66864,0a1.46918,1.46918,0,0,0-1.51426,1.54841c0,1.08162.00732,2.16329,0,3.245a.61709.61709,0,0,1-.117.38522,1.55411,1.55411,0,0,1-1.68251.452V1.25205H38.82953Z"/><path d="M5.16172,6.17541c0-.45652,0-.86237,0-1.26821.00013-1.04134-.00742-2.08275.00323-3.124A1.01551,1.01551,0,0,1,6.24415.69851Q9.01642.69026,11.78872.69724a1.05126,1.05126,0,0,1,1.15847,1.17107c.00712,1.27856.002,2.55719.00207,3.83579,0,.14147,0,.28294,0,.47112.75163,0,1.465-.03046,2.17429.01153a3.5491,3.5491,0,0,1,1.24041.26606,2.2732,2.2732,0,0,1,1.183,2.5515q-.85995,4.9232-1.705,9.84906c-.13407.77563-.254,1.55407-.40431,2.32643a2.22329,2.22329,0,0,1-2.19533,1.87929c-2.79817.02025-5.59676.02564-8.3948-.00253-1.25984-.01269-2.01023-.84423-2.26136-2.31741-.5885-3.45237-1.19385-6.90179-1.78406-10.35386A11.22171,11.22171,0,0,1,.53394,8.36007,2.21509,2.21509,0,0,1,2.87718,6.17758C3.6181,6.16551,4.35937,6.17541,5.16172,6.17541Zm3.938,1.22748q-3.12412,0-6.24823.00144A1.06414,1.06414,0,0,0,1.72028,8.73506c.15228.919.31562,1.83612.47491,2.75392q.81091,4.67262,1.62063,9.34545a1.04282,1.04282,0,0,0,1.131,1.00288q4.10038.00718,8.20079.00043a1.03781,1.03781,0,0,0,1.1397-.952c.11391-.61928.21457-1.24105.3209-1.86176q.87048-5.08181,1.74286-10.16326c.16479-.95347-.23659-1.45661-1.19838-1.45747Q12.12616,7.40056,9.09968,7.40289ZM6.3832,3.82536l5.32313-.816V1.90073H6.3832Zm5.33157.40094-5.32408.81713V6.14559h5.32408Z"/></svg>