<svg id="Layer_1" data-name="Layer 1" xmlns="http://www.w3.org/2000/svg" width="40" height="40" viewBox="0 0 40 40"><path d="M30.7096,26.28466s-3.20868,2.81534-3.24781,3.011.4421,4.14783.4421,4.14783l3.168,2.113a37.4179,37.4179,0,0,0,4.17687-.62609c.23478-.19565,2.93477-3.20869,2.93477-3.20869Z" fill="#f2b705"/><path d="M21.56181,20.28137a5.79634,5.79634,0,0,1-5.06633,5.68108,6.10039,6.10039,0,0,0,1.06092.09415h0a5.82493,5.82493,0,0,0,5.9064-5.73991V15.53991h-1.901Z" fill="#f2b705"/><path d="M18.46716,2.8715h0a5.89322,5.89322,0,0,0-.676.03923,5.95652,5.95652,0,0,1,5.1614,6.0575v3.01968h1.352V8.96823A5.9373,5.9373,0,0,0,18.46716,2.8715Z" fill="#f2b705"/><path d="M39.73587,28.104a.90181.90181,0,0,0-1.128.056l-1.59208,1.512-3.584-2.688,1.592-1.504a.60285.60285,0,0,0-.06387-.952.90319.90319,0,0,0-1.12812.056l-1.592,1.504-.2-.144a2.10515,2.10515,0,0,0-2.624.128L27.55194,27.84h-6.864V25.76a6.39133,6.39133,0,0,0,3.312-5.408V15.768h1.83193a2.0749,2.0749,0,0,0,2.224-1.872,2.08086,2.08086,0,0,0-2.224-1.88H24.952V9.088c0-3.376-2.68007-6.232-6.344-7.136V.688a.54064.54064,0,0,0-.464-.496,10.51315,10.51315,0,0,0-4,0,.68213.68213,0,0,0-.344.184.4716.4716,0,0,0-.128.312V1.952c-3.656.904-6.33592,3.76-6.33592,7.136v2.928H6.44792a2.08086,2.08086,0,0,0-2.224,1.88,2.0749,2.0749,0,0,0,2.224,1.872H8.28v4.584A6.38264,6.38264,0,0,0,11.6,25.76v2.08H3.984C1.792,27.84,0,29.352,0,31.2V40H32.27985V35.992l2.464-.128a1.98792,1.98792,0,0,0,1.27988-.52l2.53612-2.408a1.40168,1.40168,0,0,0-.152-2.216l-.2-.152,1.592-1.512A.60772.60772,0,0,0,39.73587,28.104ZM8.544,9.088c0-2.8,2.15194-5.192,5.12791-6.064V5.472a.56761.56761,0,0,0,.608.512h.016a.56311.56311,0,0,0,.592-.512l-.008-2.704V1.112a8.86361,8.86361,0,0,1,2.52,0v.624a.028.028,0,0,0,.008.016.02933.02933,0,0,1-.008.024V5.472a.56016.56016,0,0,0,.6.512h.008a.55967.55967,0,0,0,.6-.504V3.024c2.984.872,5.128,3.264,5.128,6.064v2.928H8.544ZM6.44792,14.744a.94447.94447,0,0,1-1.008-.848.94491.94491,0,0,1,1.008-.856H25.83183a.93975.93975,0,0,1,1.008.856.93926.93926,0,0,1-1.008.848Zm3.04,5.608V15.768h13.304v4.584A5.468,5.468,0,0,1,19.752,25.064c-.05606.032-.11211.056-.16807.088-.03193.016-.05595.032-.088.048h-.016c-.056.032-.112.056-.176.088l-.048.024c-.048.016-.088.04-.13594.056a.33483.33483,0,0,1-.08008.032.02478.02478,0,0,1-.016.008c-.048.024-.0959.04-.152.064-.032.008-.064.024-.096.032a.45136.45136,0,0,1-.096.032c0,.008-.008.008-.016.008-.064.024-.12793.04-.192.064-.024.008-.05606.016-.088.024-.03994.016-.072.024-.112.04a.04812.04812,0,0,0-.032.008c-.064.016-.13594.032-.2.048-.024.008-.056.016-.07989.024-.04.008-.08007.016-.1121.024L17.728,25.8l-.12.024-.096.024a.17626.17626,0,0,0-.06406.008c-.03994.00795-.08789.016-.12793.024-.04,0-.07207.008-.1041.008-.03194.008-.06387.008-.0959.016-.08008.008-.16.016-.232.024a.3.3,0,0,1-.08.008,1.0723,1.0723,0,0,1-.16006.008.45521.45521,0,0,1-.10391.008h-.032a.19892.19892,0,0,1-.06406.008H16.328c-.06406,0-.12.008-.184.008-.06407,0-.12813-.008-.192-.008h-.10411a.29964.29964,0,0,1-.08-.008H15.752a.606.606,0,0,1-.12012-.008.8695.8695,0,0,1-.14395-.008,1.55162,1.55162,0,0,1-.192-.016.33.33,0,0,0-.088-.008.10137.10137,0,0,0-.048-.008c-.032-.008-.05606-.008-.08809-.016-.04,0-.072-.008-.104-.008-.048-.008-.088-.016-.136-.024-.016,0-.02392-.008-.03994-.008-.048-.008-.096-.016-.136-.024-.064-.016-.13594-.024-.2-.04a.83616.83616,0,0,0-.13594-.032c-.032-.008-.05605-.016-.08809-.024-.064-.016-.11992-.032-.176-.048-.016,0-.032-.008-.048-.008a.61326.61326,0,0,0-.088-.032l-.09609-.024a.00781.00781,0,0,0-.008-.008c-.00791,0-.02392-.008-.03193-.008l-.144-.048c-.024-.008-.048-.016-.07989-.024-.1041-.04-.216-.08-.32812-.128a.923.923,0,0,0-.08789-.04.00784.00784,0,0,1-.008-.008.40389.40389,0,0,1-.1041-.04c-.008-.008-.02393-.008-.03193-.016-.024-.008-.056-.024-.08-.032,0-.008,0-.008-.008-.008-.032-.016-.07207-.032-.112-.056h-.008l-.096-.048c-.05605-.032-.112-.056-.168-.088A5.468,5.468,0,0,1,9.488,20.352Zm9.98394,6.008v2.288A3.11025,3.11025,0,0,1,16.144,31.464a3.113,3.113,0,0,1-3.336-2.816V26.36c.03193.016.064.024.104.04.056.024.11191.04.176.064.048.016.088.032.144.048l.12012.048.09589.024c.04.016.07207.024.11211.04h.02393l.072.024c.024.008.05606.016.08809.024a.24691.24691,0,0,1,.064.016.23257.23257,0,0,0,.072.016.59439.59439,0,0,0,.112.032c.08.016.16807.04.24795.056.05606.008.12012.024.176.032.008,0,.016.008.024.008.032.008.07207.008.1041.016.008,0,.02393.008.03194.008a.62462.62462,0,0,0,.128.016c.04.008.088.016.12793.024h.04a.61877.61877,0,0,0,.12.016.542.542,0,0,0,.112.016h.008a1.19022,1.19022,0,0,0,.168.016.38934.38934,0,0,0,.096.008.56569.56569,0,0,0,.112.008.82676.82676,0,0,0,.13594.008.56715.56715,0,0,0,.11211.008,1.54054,1.54054,0,0,0,.192.008h.432a1.41731,1.41731,0,0,0,.184-.008.52719.52719,0,0,0,.11192-.008.82661.82661,0,0,0,.136-.008.45608.45608,0,0,0,.104-.008h.016a.389.389,0,0,0,.096-.008,1.19177,1.19177,0,0,0,.168-.016c.03994,0,.072-.008.104-.008.048-.008.096-.016.15195-.024l.144-.024h.016c.03193-.008.064-.008.104-.016a1.40619,1.40619,0,0,0,.16-.032h.008a1.76024,1.76024,0,0,0,.2-.04c.048-.008.104-.024.16-.032a.5897.5897,0,0,0,.11211-.032l.28789-.072c.032-.008.056-.016.08808-.024s.064-.024.096-.032c.02393-.008.048-.008.064-.016a.70972.70972,0,0,1,.12-.04.11345.11345,0,0,1,.048-.016c.05606-.016.1041-.04.16006-.056.056-.024.112-.04.176-.064C19.40793,26.384,19.43986,26.376,19.47189,26.36ZM5.144,38.976H1.21591V31.2A2.58167,2.58167,0,0,1,3.984,28.864H5.144Zm2.984,0H6.352V28.864H8.128Zm1.208,0V28.864H11.6a.27206.27206,0,0,1,.008.08.22376.22376,0,0,1,.00791.072c0,.024.008.04.008.064a.22134.22134,0,0,1,.008.072.28419.28419,0,0,1,.016.08.40109.40109,0,0,1,.016.096c.008.024.016.056.024.088s.016.064.024.088l.024.096a.61647.61647,0,0,0,.03193.088c.008.024.016.056.024.088a.69627.69627,0,0,1,.056.136.23928.23928,0,0,1,.032.08c.024.04.04.08.06406.12a.37414.37414,0,0,0,.03994.08.48343.48343,0,0,0,.04795.088.37411.37411,0,0,0,.04.08.44271.44271,0,0,0,.048.064.32427.32427,0,0,0,.04.072c.03994.064.08789.128.13594.192a.16722.16722,0,0,0,.032.048.846.846,0,0,0,.08.096.416.416,0,0,0,.08.088.85206.85206,0,0,0,.08.096.91135.91135,0,0,0,.088.088l.12.12c.008.008.016.008.016.016.048.04.088.08.136.12.056.04.11192.088.16.128.05606.04.112.08.16.12a.17308.17308,0,0,1,.04.024l.07207.048c.05586.04.11992.072.176.112a.59569.59569,0,0,1,.0959.056c.04.016.07207.04.11211.056l.09589.048c.0961.048.192.088.28809.128a1.12572,1.12572,0,0,0,.14394.064c.08008.032.16.056.24.08a.45062.45062,0,0,0,.096.032.51863.51863,0,0,0,.104.032c.056.016.11191.032.176.048.016,0,.024.008.04.008a.10131.10131,0,0,0,.04794.008c.032.008.064.016.088.024l.12.024c.024,0,.048.008.072.008.05606.008.10411.016.16.024a.5406.5406,0,0,0,.11211.016c.024,0,.03994.008.064.008.064.008.12.008.176.016h.096a.08706.08706,0,0,0,.04.008h.472a.0717.0717,0,0,0,.03994-.008h.09609c.032,0,.064-.008.096-.008.048-.008.096-.008.152-.016.08789-.008.176-.024.26387-.04.032,0,.05605-.008.08007-.008.072-.016.144-.032.208-.048a.83289.83289,0,0,0,.13594-.032.81491.81491,0,0,0,.11211-.032l.09589-.024a2.51554,2.51554,0,0,1,.216-.072c.024-.008.056-.016.08008-.024.03994-.016.08789-.032.12793-.048a.89425.89425,0,0,1,.128-.056,4.46253,4.46253,0,0,0,.43994-.216.16769.16769,0,0,0,.048-.032,1.67039,1.67039,0,0,0,.16-.096,1.0324,1.0324,0,0,0,.12-.08c.016-.008.03994-.024.056-.032.032-.024.07207-.056.1041-.08l.072-.048a.39876.39876,0,0,1,.064-.056.83632.83632,0,0,0,.096-.08,145.09038,145.09038,0,0,1,.17607-.16.75059.75059,0,0,0,.07988-.08l.13614-.136a.39875.39875,0,0,1,.05586-.064.84853.84853,0,0,1,.07207-.088c.032-.04.056-.072.088-.112l.072-.096c.024-.032.04-.064.06406-.096l.048-.072c.01591-.024.03193-.056.04794-.08.01592-.024.03194-.056.048-.08.016-.04.04-.08.06407-.128a.028.028,0,0,0,.008-.016c.016-.032.032-.064.04795-.104.008,0,.008,0,.008-.008l.048-.12.048-.12.008-.008c.008-.032.016-.064.024-.088a.60854.60854,0,0,0,.032-.088l.02392-.096c.008-.024.016-.056.024-.088.02392-.088.03994-.176.056-.264,0-.024.008-.048.008-.072,0-.024.008-.04.008-.064s.008-.048.008-.072a.27206.27206,0,0,1,.008-.08H22.944V36.656a.67455.67455,0,0,0-.3041.40795,2.10663,2.10663,0,0,0,.3041,1.688,2.2468,2.2468,0,0,0,.16.224ZM26.38388,36.72a1.003,1.003,0,0,1,.112,1.584,1.29513,1.29513,0,0,1-.568.32,1.4907,1.4907,0,0,1-1.3041-.224,1.016,1.016,0,0,1-.42392-1.064.55392.55392,0,0,0-.048-.392v-8.08h2.43192a1.3754,1.3754,0,0,0-.176.752l.21592,3.064a1.41827,1.41827,0,0,0,.52011.992.54977.54977,0,0,0,.10391.088l.66406.50395-.768.728-.824.776A.60759.60759,0,0,0,26.38388,36.72Zm4.688,2.256h-3.168a2.16018,2.16018,0,0,0,.064-2.744l1.136-1.08.664.504a2.09845,2.09845,0,0,0,1.304.392Zm6.296-6.936-2.536,2.408a.25317.25317,0,0,1-.184.072l-2.368.12-1.208.064h-.048a.30375.30375,0,0,1-.192-.056l-2.52792-1.896a.24892.24892,0,0,1-.08809-.152l-.20791-3.064a.18965.18965,0,0,1,.064-.16l.528-.496.92-.88,1.088-1.032a.30042.30042,0,0,1,.376-.016l6.36,4.768A.20405.20405,0,0,1,37.36781,32.04Z" fill="#18191a"/><path d="M33.25908,32.56268a.90538.90538,0,0,1-.9786.1439.84566.84566,0,0,1-.14778-.08721l-1.06437-.79885-.527-.39506a.60218.60218,0,0,1-.06614-.9506.82716.82716,0,0,1,.36685-.198.91255.91255,0,0,1,.75953.14128l.66446.49885.92693.69507A.60274.60274,0,0,1,33.25908,32.56268Z" fill="#252525"/></svg>