<svg id="Layer_1" data-name="Layer 1" xmlns="http://www.w3.org/2000/svg" width="40" height="40" viewBox="0 0 40 40"><polygon points="23.716 18.374 32.777 18.374 32.777 14.379 29.967 10.812 29.686 0.825 28.247 0.825 26.736 1.895 27.017 11.026 24.044 13.166 23.716 18.374" fill="#f2b705"/><path d="M6.02495,2.71567a.09543.09543,0,0,0-.03593.0219c.06464-.0292.12927-.05835.19387-.08025C6.13262,2.67922,6.07517,2.69382,6.02495,2.71567Z"/><path d="M3.44736,4.43659a.12771.12771,0,0,0-.0287.03649l.03589-.03649Z"/><path d="M39.84925,10.43069a1.13727,1.13727,0,0,0-1.87393-.91151,5.12492,5.12492,0,0,1-2.90069.88961,11.78713,11.78713,0,0,1-4.34381-.78751.49151.49151,0,0,1-.39488-.5615c.01437-2.21678.00719-4.44089.00719-6.665a3.84737,3.84737,0,0,0-.08616-.86046A2.05669,2.05669,0,0,0,27.95222.0176,2.09951,2.09951,0,0,0,26.186,2.074c-.01433,1.61156-.00719,3.23037-.00719,4.84194v.48855c-.64616-.3646-1.22772-.69271-1.81648-1.02816a45.81426,45.81426,0,0,0-7.3019-3.62418,15.2345,15.2345,0,0,0-8.68047-.824,14.82516,14.82516,0,0,0-2.06061.67821,1.03513,1.03513,0,0,0-.13642.051c-.0646.0219-.12923.05105-.19387.08025a.022.022,0,0,0-.01433.0073A8.68708,8.68708,0,0,0,3.56941,4.32723c-.05027.04375-.08616.0802-.11486.10936l-.03589.03649-.01437.01456A11.75611,11.75611,0,0,0,2.19089,5.9023,12.07617,12.07617,0,0,0,.07282,11.8891a11.88913,11.88913,0,0,0,1.32112,7.11706.68655.68655,0,0,1,.05026.40106,3.22015,3.22015,0,0,0,.5959,2.54492A4.50973,4.50973,0,0,0,5.07,23.63661a.54848.54848,0,0,1,.3518.23335,11.19108,11.19108,0,0,0,2.93659,3.79918.62168.62168,0,0,1,.201.43021c.01437,1.36361.00719,2.72722.01437,4.09083a.3737.3737,0,0,1-.33747.43025c-.47385.13126-.94775.26251-1.4216.40836a12.80358,12.80358,0,0,0-3.70479,1.60426,4.55685,4.55685,0,0,0-2.08217,3.86479C1.02057,39.599,1.41545,40,2.5068,40H22.78272c.15079,0,.30872,0,.4667-.0146a1.11293,1.11293,0,0,0,.96208-.948,4.51878,4.51878,0,0,0-1.4503-3.92313,8.5137,8.5137,0,0,0-3.10171-1.69177c-.9693-.3281-1.94575-.6125-2.95091-.92606,0-1.37091.02152-2.72722-.00718-4.09084a.92412.92412,0,0,1,.56719-.999c.05026.07295.10772.13855.158.2188a8.74479,8.74479,0,0,0,6.469,3.92313h.00719a8.92084,8.92084,0,0,0,3.50378-.16045c.07182-.02185.13641-.04375.2082-.05835A.90685.90685,0,0,1,27.744,31.286c.01433-.0073.02871-.0073.04308-.01455v-.0073a18.39272,18.39272,0,0,0,2.07494-.72191,21.204,21.204,0,0,0,7.73991-6.5118,1.0803,1.0803,0,0,0-.66053-1.721c-.14361-.03645-.28-.0729-.438-.10935a.992.992,0,0,1,.08616-.13125,14.57506,14.57506,0,0,0,3.10889-6.59936c.1149-.57605.20106-1.15941.30154-1.73551V11.34949A5.84088,5.84088,0,0,1,39.84925,10.43069ZM27.37784,9.59208c-.01437-2.38447-.00719-4.76169,0-7.13891a2.35428,2.35428,0,0,1,.079-.70736.89282.89282,0,0,1,.90467-.5469.90741.90741,0,0,1,.78258.80945,2.96579,2.96579,0,0,1,.00719.35731V9.62128a3.184,3.184,0,0,0,1.41445,2.80013,4.1916,4.1916,0,0,1,1.88112,3.68978c-.00719.61985,0,1.23966,0,1.896H24.11816c-.1795-2.28972-.18664-4.20023,1.96732-5.68054A3.07734,3.07734,0,0,0,27.37784,9.59208Zm-24.8064,10.61a2.448,2.448,0,0,1,2.075-2.36992,12.967,12.967,0,0,0,.22257,4.47A2.56053,2.56053,0,0,1,2.57144,20.20207ZM19.3651,34.61115a12.08194,12.08194,0,0,1,2.37653,1.23236,3.0999,3.0999,0,0,1,1.29955,2.946H2.26267a3.18,3.18,0,0,1,1.40008-3.07728,11.9128,11.9128,0,0,1,3.6689-1.58236c.46671-.14585.94774-.26981,1.42164-.41566a1.31755,1.31755,0,0,0,1.00515-1.37091V28.6171a4.92222,4.92222,0,0,0,5.76545,0v1.96157c.00719.6198-.00719,1.23965.01437,1.85946a1.25745,1.25745,0,0,0,1.00516,1.28341C17.49116,34.0132,18.45328,34.24655,19.3651,34.61115Zm-2.836-14.64973a13.93717,13.93717,0,0,0-.33748,3.96689c.07178.68545.28,1.36361.40926,2.04176.0287.13126.0287.33546-.05027.40106a7.83222,7.83222,0,0,1-3.11607,1.88866,2.95129,2.95129,0,0,1-2.06062-.16044A9.10235,9.10235,0,0,1,5.84546,21.099a14.79332,14.79332,0,0,1-.11491-1.49486,14.56514,14.56514,0,0,1,1.0698-5.6368,5.2969,5.2969,0,0,1,3.30994-3.08453,4.43935,4.43935,0,0,1,3.36017.43751,6.03371,6.03371,0,0,1,3.25245,4.52109A11.05733,11.05733,0,0,1,16.52909,19.96142ZM38.564,15.17783a13.671,13.671,0,0,1-3.08014,6.3441,1.07912,1.07912,0,0,0-.22977,1.16672,1.11457,1.11457,0,0,0,.95494.7146c.09334.0146.17949.04375.40926.0948-1.01953,1.05736-1.917,2.06367-2.9007,2.98978a14.61331,14.61331,0,0,1-5.87311,3.54393c-.31592.0875-.63183.14585-.94775.23335-.01433.0073-.0287.0073-.04308.01456-.01433,0-.02151,0-.0287.00729a7.2874,7.2874,0,0,1-2.69963.07295v.00726c-.09335-.01456-.18669-.02186-.27284-.03645a7.46238,7.46238,0,0,1-5.39923-3.31789,7.62506,7.62506,0,0,1-.92623-5.84825c.20106-1.16671.40207-2.34072.48823-3.522a20.00457,20.00457,0,0,0-.12923-2.52307c.03589.05105.10053.11665.15079.1823a13.00084,13.00084,0,0,1,1.80934,3.44188c.08615.2625.201.49585.50255.5396a.59212.59212,0,0,0,.62465-.88235A29.9819,29.9819,0,0,0,19.602,15.52783,14.976,14.976,0,0,0,14.35357,10.438a6.29991,6.29991,0,0,0-1.61547-.66361,5.88552,5.88552,0,0,0-2.64937-.175c.04308-.05835.05027-.0875.07178-.1021.079-.051.158-.0948.237-.13855A6.373,6.373,0,0,1,15.8757,8.79a20.259,20.259,0,0,1,2.61347,1.29071.60955.60955,0,0,0,.8616-.13129.58894.58894,0,0,0-.158-.83127A9.30228,9.30228,0,0,0,14.3392,7.24406a7.91435,7.91435,0,0,0-7.1296,3.41268,13.30269,13.30269,0,0,0-2.276,5.35965c-.07178.34275-.16512.53235-.55286.60525a4.00982,4.00982,0,0,0-1.96728,1.072,2.13973,2.13973,0,0,1-.23694.19685,1.09693,1.09693,0,0,1-.079-.124c-.05027-.1094-.10053-.21145-.14361-.32085a11.27144,11.27144,0,0,1-.64616-5.94305A10.32846,10.32846,0,0,1,4.0433,5.52314l.201-.2042A13.27817,13.27817,0,0,1,6.8578,3.65638c.03589-.0146.05026-.0219.05026-.0219a11.35955,11.35955,0,0,1,5.43516-.75836,18.04413,18.04413,0,0,1,5.25566,1.36361,81.11737,81.11737,0,0,1,8.39325,4.43354.36641.36641,0,0,1,.1795.2261,2.5457,2.5457,0,0,1-.998,2.63243A4.84759,4.84759,0,0,0,22.98377,15.083c-.1149.91881-.03593,1.86676-.09334,2.80013-.05745.95525.359,1.3928,1.23492,1.35635.02156,0,.04307.02186.10052.05831v2.50847a.54522.54522,0,0,0,.47386.5834.51877.51877,0,0,0,.63183-.32815,1.03985,1.03985,0,0,0,.05026-.423c.00719-.79486.00719-1.58237.00719-2.39182h1.09135c.00719.1167.02152.2042.02152.299.00718.72191-.00719,1.45111.00718,2.18032.00719.43025.25132.68545.61032.67815.34462,0,.57438-.2625.59589-.68545.00719-.13125,0-.2625,0-.39376V19.24677h1.12006v2.43557a.95478.95478,0,0,0,.05745.3792.53022.53022,0,0,0,.639.32815.5413.5413,0,0,0,.46666-.5907V19.24677h1.12006v.45215c0,.66356-.00714,1.31986,0,1.98342.00719.4594.237.7219.60313.7219s.60312-.2698.60312-.7219c.00715-.67086,0-1.349.00715-2.01992,0-.13855.01437-.2771.02156-.40835,1.09849-.124,1.30674-.35731,1.30674-1.43652,0-.5688.00718-1.13756,0-1.70636a5.55215,5.55215,0,0,0-2.40528-4.68149,6.32207,6.32207,0,0,1-.48823-.40836c2.69964.71461,5.33463,1.07921,7.86914-.4667A12.40318,12.40318,0,0,1,38.564,15.17783Z"/><path d="M13.56961,24.61322a3.58212,3.58212,0,0,1-1.89341-.00407c-.30569-.08457-.60532-.17241-.8996-.27594a.59893.59893,0,1,1,.4437-1.10416,3.31046,3.31046,0,0,0,2.7874.02228.60293.60293,0,1,1,.48481,1.08613C14.18933,24.44012,13.88143,24.52838,13.56961,24.61322Z"/><path d="M9.11615,15.05005a1.89,1.89,0,0,1,1.22473.0057,7.91444,7.91444,0,0,1,.79479.31317.55275.55275,0,0,1,.24681.80593.57266.57266,0,0,1-.80315.23568,1.69356,1.69356,0,0,0-1.74206.00395.59031.59031,0,1,1-.5398-1.05A8.01656,8.01656,0,0,1,9.11615,15.05005Z"/><path d="M9.13654,18.71325c.00046-.15763-.00933-.316.00245-.4727a.55377.55377,0,0,1,.57419-.56235.57977.57977,0,0,1,.586.56087,8.75147,8.75147,0,0,1,.00085.90621.60888.60888,0,0,1-.60452.59392.59083.59083,0,0,1-.55778-.5926C9.1279,19.0028,9.13608,18.85774,9.13654,18.71325Z"/><path d="M6.31931,2.599v.0073a1.03513,1.03513,0,0,0-.13642.051A1.094,1.094,0,0,1,6.31931,2.599Z"/></svg>