<svg id="Layer_1" data-name="Layer 1" xmlns="http://www.w3.org/2000/svg" width="40" height="40" viewBox="0 0 40 40"><path d="M13.558,26.97481a12.97139,12.97139,0,0,0-.836-2.2432c-.03583,0,.42158-1.82259.42158-1.82259l-1.20984-1.1917L8.924,23.11932l.75243-2.62875,3.65467-1.15665,2.68726,2.103v3.32974Z" fill="#f2b705"/><polygon points="35.462 30.918 38.579 27.413 39.224 26.922 36.501 24.434 35.067 22.681 33.598 25.415 31.198 26.8 33.849 28.99 35.462 30.918" fill="#f2b705"/><path d="M2.99,10.28271.9835,12.70116l2.329,2.03289s2.65143-2.52359,2.54394-2.45349A34.22185,34.22185,0,0,1,2.99,10.28271Z" fill="#f2b705"/><path d="M33.41191,36.49593c-.48349-2.02792-4.96655-3.69038-6.74659-4.407a.65493.65493,0,0,1-.10989-.03582.04481.04481,0,0,1-.02929-.00717c-.46883-.13615-.93761-.27948-1.41377-.39411a.41071.41071,0,0,1-.3736-.48727c.00734-1.53348.01467-3.07409-.00733-4.60758a1.0182,1.0182,0,0,1,.41755-.88854,11.91166,11.91166,0,0,0,3.55278-4.67927.56884.56884,0,0,1,.48345-.37976,4.83135,4.83135,0,0,0,2.35142-1.07486,2.82052,2.82052,0,0,0,1.11341-2.75885,3.11683,3.11683,0,0,0-.98889-1.69828.58577.58577,0,0,1-.18313-.42276,12.522,12.522,0,0,0,.066-4.149A12.41362,12.41362,0,0,0,27.0023,2.48,11.25161,11.25161,0,0,0,14.69586,1.30489V1.312c-.10256.05733-.21246.11467-.315.172-.09524.05017-.19776.11463-.30765.18627a2.15794,2.15794,0,0,0-.19047.13615,22.62713,22.62713,0,0,0-2.17558,1.80579.00713.00713,0,0,0-.00733.00717c-.04395.03582-.08057.07164-.1099.09316l-.0879.086A12.67226,12.67226,0,0,0,8.4181,14.497a.618.618,0,0,1-.19779.63777,2.80293,2.80293,0,0,0,.24174,4.47143c.23442.17914.47612.32964.7032.48726a8.96409,8.96409,0,0,0-.586.8599,2.1438,2.1438,0,0,0-.36627.93154c0,.87425-.57868,1.23254-1.25992,1.57648a2.60961,2.60961,0,0,0-1.51634,2.57248q.011,6.30953-.00733,12.61177A1.33348,1.33348,0,0,0,6.14724,40H32.81856a1.36769,1.36769,0,0,0,.93028-1.24688A9.19991,9.19991,0,0,0,33.41191,36.49593ZM28.00586,19.1906a10.38418,10.38418,0,0,1-7.20075,7.48106,2.96741,2.96741,0,0,1-1.76537-.0143A8.865,8.865,0,0,1,16.051,25.15252a4.11076,4.11076,0,0,0,.32231-3.65452,4.271,4.271,0,0,0-4.02156-2.73016c-.43221.00718-.62268-.06451-.65929-.53743a13.0017,13.0017,0,0,1,1.465-7.83934A7.27871,7.27871,0,0,1,19.047,6.70786a8.10456,8.10456,0,0,1,6.02872,1.57647,7.25743,7.25743,0,0,1,2.3221,3.25324A12.43034,12.43034,0,0,1,28.00586,19.1906ZM14.271,31.80237c-.945.2866-1.89726.57325-2.8422.85985-.10257.02869-.1978.05017-.337.086,0-1.09638-.00733-2.16407.00733-3.23176,0-.09316.12452-.215.22708-.27948.45417-.28665.923-.559,1.39182-.83121a2.4707,2.4707,0,0,0,1.05484-1.23253.84584.84584,0,0,1,.32231-.33677c.33694-.20784.68858-.39415,1.08413-.61629,0,1.49049.01466,2.94516,0,4.39979C15.16464,31.73068,15.38439,31.46555,14.271,31.80237Zm-.44683-6.17689c-.28569-.45144-.57139-.86707-.82047-1.31134a.7158.7158,0,0,1-.03662-.4801,6.08421,6.08421,0,0,0,.34432-1.17519,1.63685,1.63685,0,0,0-2.432-1.46185c-.46149.24366-.90832.52313-1.38448.78826a2.89968,2.89968,0,0,1,2.703-2.02792,3.10408,3.10408,0,0,1,3.11324,2.13538A2.98463,2.98463,0,0,1,13.82415,25.62548ZM31.478,17.11256a2.40712,2.40712,0,0,1-2.10235,2.22136c.05862-1.36864.11719-2.723.1758-4.07014A2.38221,2.38221,0,0,1,31.478,17.11256ZM24.98052,3.41875a2.13972,2.13972,0,0,1,2.27082.88859,11.44361,11.44361,0,0,1,3.19385,8.62039c-.00734.22214-.00734.44427-.02933.65924-.022.20783-.06591.40845-.10257.62342a4.92,4.92,0,0,1-.835-.26513.66093.66093,0,0,1-.24907-.42276,10.49949,10.49949,0,0,0-2.48328-5.30985,8.15714,8.15714,0,0,0-5.34744-2.64417c-.86437-.086-1.74341-.0143-2.725-.0143a2.4015,2.4015,0,0,1,.30765-.20784A16.65365,16.65365,0,0,1,24.585,3.44744,3.66576,3.66576,0,0,0,24.98052,3.41875ZM10.55707,7.35992a10.806,10.806,0,0,1,1.846-2.766,1.13208,1.13208,0,0,0,.12452-.15046c0-.01434.01466-.02151.02195-.02869a11.32933,11.32933,0,0,1,2.53456-1.94189c.15384-.09316.271-.15767.315-.17914a.09117.09117,0,0,0,.022-.01435,9.82975,9.82975,0,0,1,6.24109-.94589,8.994,8.994,0,0,1,2.73969.91007,2.477,2.477,0,0,1-.36626.10029c-.10257.02152-.21246.02152-.315.043a19.76043,19.76043,0,0,0-7.12014,2.981c-3.07662,2.02075-5.28886,4.6291-5.91149,8.31944a.45512.45512,0,0,1-.24175.26513c-.2637.1075-.54939.172-.84971.26513A11.86351,11.86351,0,0,1,10.55707,7.35992ZM8.8796,18.3307a1.51222,1.51222,0,0,1-.044-2.121,3.18725,3.18725,0,0,1,1.553-.98888c.03662,1.30418.08057,2.57249.12452,3.94835-.0879,0-.315.06446-.45416-.01435A5.46606,5.46606,0,0,1,8.8796,18.3307Zm.99622,11.22161c.01462,2.91647.00734,5.83294.00734,8.74941v.51591H6.68931c-.00729-.15049-.01462-.28665-.01462-.4228C6.66735,34.26739,6.682,30.1399,6.66,26.01242a1.60269,1.60269,0,0,1,.90833-1.555c1.25263-.68076,2.48327-1.4045,3.71391-2.12108.23442-.13615.45417-.22931.68858-.02147.23441.20061.18313.42992.05861.67353a5.652,5.652,0,0,0-.27836.60195,1.19838,1.19838,0,0,0,.08057,1.15368c.20513.32246.42488.63059.62263.95305a1.11347,1.11347,0,0,1-.39555,1.70546c-.46883.29378-.94494.5876-1.42844.84555A1.34185,1.34185,0,0,0,9.87582,29.55231Zm22.6131,9.25815H11.0918v-.37259c0-1.34.00733-2.68-.00733-4.02a.42383.42383,0,0,1,.35164-.50161c1.23064-.36542,2.454-.75239,3.67725-1.11068a1.51877,1.51877,0,0,0,1.30392-1.69828V26.80064a6.086,6.086,0,0,0,7.09085.00717v.53743c0,1.27553-.00733,2.551,0,3.82654a1.4879,1.4879,0,0,0,1.24531,1.61947c.48345.13615.96694.2723,1.45772.40128.73253.35111,4.24865,1.67676,4.88594,2.164A3.57714,3.57714,0,0,1,32.48892,38.81046Z"/><path d="M40,27.20071a1.277,1.277,0,0,1-.73855,1.05917.39551.39551,0,0,1-.07548.02476,3.98875,3.98875,0,0,0-2.94867,2.88019,1.02629,1.02629,0,0,1-1.06937.71958,1.1009,1.1009,0,0,1-1.07113-.72526,1.27165,1.27165,0,0,1-.0621-.143,3.74973,3.74973,0,0,0-2.7357-2.67784,1.12852,1.12852,0,0,1-.17687-2.14467c.21859-.09219.44627-.16357.66889-.2468a3.41877,3.41877,0,0,0,2.071-2.03043c.08088-.20534.15326-.41409.24039-.61681a1.15952,1.15952,0,0,1,2.14512.00912c.06141.14313.11562.28947.16732.4363a3.54983,3.54983,0,0,0,2.3715,2.29051,2.248,2.248,0,0,1,.82346.43937A2.52929,2.52929,0,0,1,40,27.20071Zm-1.469.03094c-2.10743-.96364-2.26148-1.114-3.35505-3.26293-1.27879,2.30324-1.36681,2.38891-3.4102,3.28294a4.84925,4.84925,0,0,1,3.38943,3.31813C36.07562,28.54635,36.33372,28.29287,38.531,27.23165Z"/><path d="M3.31073,9.14491a.86828.86828,0,0,1,.905.62328,2.471,2.471,0,0,0,1.76859,1.73188.92977.92977,0,0,1,.00641,1.76848,2.47708,2.47708,0,0,0-1.77291,1.72808.8708.8708,0,0,1-.90053.63072.87208.87208,0,0,1-.90618-.62427A2.47131,2.47131,0,0,0,.64456,13.269a.92812.92812,0,0,1-.00649-1.76538A2.47071,2.47071,0,0,0,2.40931,9.77408.86686.86686,0,0,1,3.31073,9.14491ZM1.6349,12.385a3.27046,3.27046,0,0,1,1.67755,1.6325A3.28815,3.28815,0,0,1,4.999,12.38406,3.276,3.276,0,0,1,3.3126,10.75283,3.2562,3.2562,0,0,1,1.6349,12.385Z"/><path d="M19.96513,22.41621a5.03432,5.03432,0,0,1-2.19053-.46891c-.41326-.178-.56557-.50285-.41052-.83943a.6174.6174,0,0,1,.88541-.243,4.09438,4.09438,0,0,0,3.41878.00149.62041.62041,0,0,1,.88811.23638c.15968.33619.01106.66363-.40128.8424A5.03175,5.03175,0,0,1,19.96513,22.41621Z"/><path d="M18.194,14.19836a.61685.61685,0,0,1-.90544.58738,2.70554,2.70554,0,0,0-2.86173.00856.56046.56046,0,0,1-.77382-.18874.59275.59275,0,0,1,.1444-.80108,3.86045,3.86045,0,0,1,4.15251.01937A1.41734,1.41734,0,0,1,18.194,14.19836Z"/><path d="M24.09,13.2106a3.35423,3.35423,0,0,1,1.88351.48653.62513.62513,0,0,1,.31267.88546c-.18285.30788-.531.34764-.93941.13119a2.59049,2.59049,0,0,0-2.581.00462c-.40124.21674-.74726.17125-.94055-.14107-.18871-.30492-.09334-.61341.28492-.85291A3.36922,3.36922,0,0,1,24.09,13.2106Z"/><path d="M15.25719,16.45605a.62363.62363,0,0,1,.89634-.69907.94116.94116,0,0,1,.26913,1.09236.56693.56693,0,0,1-.64144.35514C15.4303,17.16315,15.258,16.91169,15.25719,16.45605Z"/><path d="M24.66713,16.44675c.00037.60623-.43438.942-.90161.69636a.92244.92244,0,0,1-.27181-1.05945.55816.55816,0,0,1,.69258-.37875C24.51539,15.76,24.66687,16.00052,24.66713,16.44675Z"/><path d="M14.69586,1.30489V1.312c-.10256.05733-.21246.11467-.315.172A2.90151,2.90151,0,0,1,14.69586,1.30489Z"/></svg>