<svg id="Layer_1" data-name="Layer 1" xmlns="http://www.w3.org/2000/svg" width="40" height="40" viewBox="0 0 40 40"><g id="graphic_designer" data-name="graphic designer"><polygon points="15.493 32.808 24.711 32.808 26.261 28.601 29.326 24.563 28.244 21.102 25.252 15.838 22.043 10.79 20.457 8.266 20.328 20.023 21.791 21.534 21.971 23.75 19.375 24.918 18.113 22.832 18.75 20.885 19.808 20.537 19.808 8.05 10.866 23.445 10.866 24.851 14.616 29.755 15.493 32.808" fill="#f2b705"/><path d="M37.5,5a2.5,2.5,0,1,0-2.42-3.12H22.5V.62A.62312.62312,0,0,0,21.88,0H18.12a.62312.62312,0,0,0-.62.62V1.88H4.92a2.5,2.5,0,1,0,0,1.24h8.2A18.194,18.194,0,0,0,1.87,20H.62a.62529.62529,0,0,0-.62.63v3.75A.62316.62316,0,0,0,.62,25H4.37A.62533.62533,0,0,0,5,24.38V20.63A.62738.62738,0,0,0,4.37,20H3.12A16.89309,16.89309,0,0,1,17.5,3.21V4.38a.62316.62316,0,0,0,.62.62h3.76a.62316.62316,0,0,0,.62-.62V3.21a16.9499,16.9499,0,0,1,8.66,29.45.61963.61963,0,0,0-.05.88.619.619,0,0,0,.88.05A18.22811,18.22811,0,0,0,26.88,3.12h8.2A2.49106,2.49106,0,0,0,37.5,5Zm0-3.75A1.25,1.25,0,1,1,36.25,2.5,1.25046,1.25046,0,0,1,37.5,1.25Zm-35,2.5A1.25,1.25,0,1,1,3.75,2.5,1.25046,1.25046,0,0,1,2.5,3.75Zm1.25,17.5v2.5H1.25v-2.5h2.5ZM21.25,2.49V3.75h-2.5V2.49a.27677.27677,0,0,0-.01-.09.03677.03677,0,0,1,.01.03V1.25h2.5V2.43a.03677.03677,0,0,1,.01-.03A.27677.27677,0,0,0,21.25,2.49Z" fill="#252525"/><path d="M20.16,6.89a1.28325,1.28325,0,0,0-.31994,0A.874.874,0,0,1,20,6.87.776.776,0,0,1,20.16,6.89Z" fill="#252525"/><path d="M29.74,22.66,21.09,7.51a1.26671,1.26671,0,0,0-.92-.62h-.01a1.28325,1.28325,0,0,0-.31994,0h-.01a1.26671,1.26671,0,0,0-.92.62L10.26,22.66a2.51729,2.51729,0,0,0,.52,3.11,11.8173,11.8173,0,0,1,1.9,2.13s.05.07.14.21c.09.13.21.33.35.58.06.12.13.25.2.39.05.11.11.22.16.34a9.3893,9.3893,0,0,1,.83,3.2,1.87615,1.87615,0,0,0-1.24,1.76v1.87A1.84818,1.84818,0,0,0,14.38,38v1.37a.62008.62008,0,1,0,1.24,0V38.12h8.76v1.25a.62008.62008,0,1,0,1.24,0V38a1.84818,1.84818,0,0,0,1.26-1.75V34.38a1.87615,1.87615,0,0,0-1.24-1.76,10.14881,10.14881,0,0,1,3.58-6.85A2.50429,2.50429,0,0,0,29.74,22.66ZM20,21.25a1.25,1.25,0,1,1-1.25,1.25A1.25046,1.25046,0,0,1,20,21.25Zm5.62,15a.6318.6318,0,0,1-.62.63H15a.6318.6318,0,0,1-.62-.63V34.38a.62526.62526,0,0,1,.62-.63H25a.62526.62526,0,0,1,.62.63Zm2.77-11.42A11.46447,11.46447,0,0,0,24.4,32.5H15.62a14.53753,14.53753,0,0,0-.53-2.5.01392.01392,0,0,0,0-.02,3.96431,3.96431,0,0,0-.15-.45,10.81682,10.81682,0,0,0-1.03-2.04.7619.7619,0,0,0-.08-.11,13.32658,13.32658,0,0,0-2.22-2.55,1.22845,1.22845,0,0,1-.26-1.55L19.37,9.23V20.08a2.505,2.505,0,1,0,1.25,0V9.22l8.03,14.06A1.22845,1.22845,0,0,1,28.39,24.83Z" fill="#252525"/></g></svg>