<svg id="Layer_1" data-name="Layer 1" xmlns="http://www.w3.org/2000/svg" width="40" height="40" viewBox="0 0 40 40"><polygon points="31.843 5.687 37.53 11.061 38.642 11.687 39.252 10.852 38.887 9.809 34.296 3.965 31.426 0.73 25.432 6.626 19.014 12.991 17.157 14.817 19.478 17.478 26.47 10.174 30.591 5.948 31.843 5.687" fill="#f2b705"/><polygon points="9.93 22.117 7.635 24.15 4.922 27.078 4.713 28.386 5.268 29.061 7.322 28.386 11.757 24.365 11.391 22.863 9.93 22.117" fill="#f2b705"/><path d="M2.82685,3.13751,2.828,3.139Z" fill="#252525"/><polygon points="1.637 3.815 1.635 3.813 1.638 3.816 1.637 3.815" fill="#252525"/><path d="M1.69965,3.89709,1.694,3.88973l-.018-.02349Z" fill="#252525"/><path d="M2.71974,2.99765,2.70547,2.979h0L2.705,2.97836Z" fill="#252525"/><path d="M2.793,3.09324l.00539.007.01132.01478Z" fill="#252525"/><polygon points="2.754 3.043 2.759 3.049 2.758 3.047 2.754 3.043" fill="#252525"/><path d="M2.75756,3.047l.00133.00176.03169.04136Z" fill="#252525"/><path d="M2.73445,3.01694,2.72963,3.0106Z" fill="#252525"/><path d="M32.00363.25155a.67857.67857,0,0,0-.4914-.25045.6713.6713,0,0,0-.51489.19764L17.32587,13.87115A30.9842,30.9842,0,0,0,5.14776,2.47153l-2.004-1.04378a.67794.67794,0,0,0-.72542.06322C2.0518,1.77172.37513,3.05612.26632,3.13941a.67865.67865,0,0,0-.254.66741L.27676,5.1757A31.24617,31.24617,0,0,0,6.12263,18.19935c.40137.52388.84277,1.06216,1.31384,1.60143a7.37858,7.37858,0,0,0,1.42769,1.2508l.556.72582-4.9977,4.998a1.73808,1.73808,0,0,0,2.3501,2.55715l5.12468-4.322,1.41085,1.8415a6.77932,6.77932,0,1,0,6.50973,11.69868,6.8932,6.8932,0,0,0,1.08842-9.58412l-3.59543-4.69289a2.85412,2.85412,0,0,1-.577-1.86722,2.84778,2.84778,0,0,1,1.65267,1.04043L21.98308,28.142a6.89505,6.89505,0,0,0,9.5361,1.443l.00034-.00031a6.78145,6.78145,0,0,0-7.58474-11.22578,6.85993,6.85993,0,0,0-2.01638,1.89571c-.03064-.04-1.85527-2.42236-1.85527-2.42236l1.58712-1.57448,1.30339,1.30349a.67788.67788,0,1,0,.95864-.9587L22.609,15.29918l.71928-.7192,2.0693,2.06944a.67789.67789,0,1,0,.95863-.95874l-2.06912-2.06927.71932-.71916,3.808,3.80805a.67789.67789,0,1,0,.95867-.9587L25.9652,11.94365l.71874-.7186,5.75235,5.75274a.67787.67787,0,0,0,.95863-.95869l-5.75221-5.75265.71926-.71906,5.7521,5.7525a.67788.67788,0,1,0,.95864-.9587l-5.752-5.7524.71926-.7191,5.7519,5.7523a.67788.67788,0,1,0,.95863-.9587l-5.75176-5.7522.71857-.71842L37.31921,11.792A1.56846,1.56846,0,0,0,39.64727,9.6958ZM2.90027,2.82974l1.621.8445A29.6337,29.6337,0,0,1,16.13457,14.51632c-1.67372-.161-3.27836-.30652-3.589-.34642a3.43547,3.43547,0,0,1-2.26095-1.29674C4.84387,5.77063,3.23683,3.67271,2.828,3.139l-.0062-.00807-.02346-.03068L2.75889,3.0488,2.75448,3.043l-.02-.0261L2.72963,3.0106l-.00989-.013L2.705,2.97836h0l.00051.00068ZM5.89752,28.2969a.38375.38375,0,0,1-.51672-.02315.37765.37765,0,0,1,.00017-.53944L10.252,22.863l.81976,1.07Zm13.93261,1.49434a5.5325,5.5325,0,0,1-.85023,7.69367,5.42424,5.42424,0,1,1-4.39468-9.58476.678.678,0,0,0,.40815-1.07773l-3.59295-4.68963a7.607,7.607,0,0,0,1.5704.18313l2.41111.0179a4.21943,4.21943,0,0,0,.85277,2.76453Zm1.6205-7.91727a.68227.68227,0,0,0,1.147-.1139,5.49649,5.49649,0,0,1,2.04671-2.24564,5.42552,5.42552,0,0,1,6.0645,8.98342,5.53338,5.53338,0,0,1-7.64961-1.18067l-3.59654-4.69505a4.18715,4.18715,0,0,0-3.286-1.6379c-.42594-.00421-3.2289-.03133-3.19463-.02428a6.07462,6.07462,0,0,1-4.52589-2.05282c-.45052-.516-.87342-1.03138-1.25689-1.53224A29.88226,29.88226,0,0,1,1.60813,4.91911L1.42325,3.9619l.20569-.15715.00613.008-.00081-.00105L1.632,3.80878c-.005-.0065-.00447-.00576,0,0l.00224.00295.00275.00356.00132.00177.01085.0141.00847.01115.01207.01573.0243.03169.03139.041.0062.0081.01088.0142.00756.00984.00183.0024c.40714.53151,2.01157,2.62593,7.45538,9.73219a4.768,4.768,0,0,0,3.25962,1.82974c.369.04027,4.41308.422,4.44708.42519l.23256.3034.00583.006ZM38.58024,10.8326a.22152.22152,0,0,1-.30256.00017l-6.081-6.07817a.67828.67828,0,0,0-.95867,0c-6.50522,6.50388-12.01649,12.00482-12.01649,12.00482-.03661-.04777-1.02582-1.36556-.97416-1.29807l-.21484-.37926,13.391-13.392,7.17194,8.86125A.21209.21209,0,0,1,38.58024,10.8326Z" fill="#252525"/><path d="M2.79834,3.10026l.02346.03068L2.80966,3.115Z" fill="#252525"/><path d="M2.79058,3.09016l.00237.00308Z" fill="#252525"/><path d="M2.80966,3.115l.01214.0159.005.00657Z" fill="#252525"/><path d="M2.71974,2.99765l.00989.013.00482.00634.02.0261.00308.004-.05209-.068h0Z" fill="#252525"/><polygon points="1.738 3.947 1.732 3.939 1.73 3.937 1.738 3.947" fill="#252525"/><path d="M1.676,3.86624l-.0063-.0082-.01207-.01573-.00207-.00278Z" fill="#252525"/><path d="M1.74249,3.953l-.01088-.0142.00641.00837Z" fill="#252525"/><path d="M1.73036,3.93716l-.00495-.00644-.00522-.00681Z" fill="#252525"/><polygon points="1.744 3.954 1.742 3.953 1.738 3.947 1.744 3.954" fill="#252525"/><path d="M1.72019,3.92391l-.00915-.012Z" fill="#252525"/><path d="M1.694,3.88973,1.66972,3.858l.0063.0082Z" fill="#252525"/><path d="M1.711,3.91194l-.01139-.01485Z" fill="#252525"/><path d="M1.632,3.80878c-.00447-.00576-.005-.0065,0,0Z" fill="#252525"/><polygon points="1.634 3.812 1.635 3.813 1.637 3.815 1.634 3.812" fill="#252525"/><path d="M1.65558,3.83953l-.0064-.00837-.00794-.01034Z" fill="#252525"/><polygon points="1.641 3.821 1.638 3.817 1.638 3.816 1.641 3.821" fill="#252525"/><polygon points="1.752 3.965 1.75 3.963 1.748 3.96 1.752 3.965" fill="#252525"/><path d="M1.74805,3.96028l-.00447-.00587Z" fill="#252525"/><path d="M1.65765,3.84231l-.00847-.01115.0064.00837Z" fill="#252525"/><path d="M1.75005,3.96286l.00183.0024Z" fill="#252525"/><path d="M25.40336,21.45949a3.38981,3.38981,0,1,0,4.75219.62917A3.391,3.391,0,0,0,25.40336,21.45949ZM28.702,25.76491a2.034,2.034,0,1,1,.37737-2.85162A2.03667,2.03667,0,0,1,28.702,25.76491Z" fill="#252525"/><path d="M13.56435,30.53115a3.3898,3.3898,0,1,0,4.75232.629A3.39091,3.39091,0,0,0,13.56435,30.53115ZM16.863,34.83654a2.034,2.034,0,1,1,.37754-2.85179A2.037,2.037,0,0,1,16.863,34.83654Z" fill="#252525"/><path d="M12.68053,17.11536a1.35609,1.35609,0,0,0,.647,2.4206,1.38653,1.38653,0,0,0,.18057.01193,1.356,1.356,0,1,0-.82755-2.43253Z" fill="#252525"/></svg>