<svg id="Layer_1" data-name="Layer 1" xmlns="http://www.w3.org/2000/svg" width="40" height="40" viewBox="0 0 40 40"><rect x="7.5096" y="7.2685" width="3.05998" height="3.33057" fill="#f2b705"/><rect x="29.43015" y="7.2685" width="3.05998" height="3.33057" fill="#f2b705"/><path d="M24.94338,16.95528H15.05576a.482.482,0,0,0-.50174.45782v6.55708h.95211c.01713.00859.03425.01641.05223.02344V17.87169h8.88328v6.12193c.01712-.007.0351-.01485.05223-.02344H25.446V17.4131A.48221.48221,0,0,0,24.94338,16.95528Z" fill="#252525"/><path d="M19.99987,22.34c-5.29811,0-9.60838-3.93291-9.60838-8.76712V8.76717C10.39149,3.93291,14.70176,0,19.99987,0s9.60839,3.93291,9.60839,8.76717v4.80575C29.60826,18.40713,25.298,22.34,19.99987,22.34Zm0-21.424c-4.74449,0-8.60442,3.522-8.60442,7.85114v4.80575c0,4.32914,3.85993,7.85109,8.60442,7.85109s8.60442-3.52195,8.60442-7.85109V8.76717C28.60429,4.438,24.74436.916,19.99987.916Z" fill="#252525"/><path d="M32.7855,23.97018h-.16783a.30627.30627,0,0,1,.16783,0Z" fill="#252525"/><path d="M30.4737,23.97018h-.16782a.30624.30624,0,0,1,.16782,0Z" fill="#252525"/><path d="M35.2574,23.97018H24.49387c-.01713.00859-.03511.01641-.05223.02344v.83673c0,.01875,0,.03671-.00086.05546a4.272,4.272,0,0,1-4.44121,3.99769,4.27174,4.27174,0,0,1-4.44035-3.99769c-.00086-.01875-.00086-.03671-.00086-.05546v-.83673c-.018-.007-.0351-.01485-.05223-.02344H4.74174A4.55383,4.55383,0,0,0,0,28.29678v11.2454A.48091.48091,0,0,0,.50175,40H39.4974A.4817.4817,0,0,0,40,39.54218V28.29678A4.55407,4.55407,0,0,0,35.2574,23.97018ZM1.00349,28.29678a3.5904,3.5904,0,0,1,3.73825-3.411H6.79667V39.08437H1.00349Zm6.79667-3.411H9.19408V39.08437H7.80016Zm22.087,14.19856H10.19757V24.88581h4.3573a5.23583,5.23583,0,0,0,5.4447,4.91332,5.23661,5.23661,0,0,0,5.44555-4.91332h4.44207Zm2.31179,0H30.89154V24.88581H32.199Zm6.79667,0H33.20333V24.88581H35.2574a3.58986,3.58986,0,0,1,3.73825,3.411Z" fill="#252525"/><path d="M10.56958,11.05707h-3.06a.48154.48154,0,0,1-.502-.458V7.2685a.48155.48155,0,0,1,.502-.45806h3.06a.48147.48147,0,0,1,.50194.45806v3.33057A.48146.48146,0,0,1,10.56958,11.05707Zm-2.558-.916h2.05609V7.7265H8.01155Z" fill="#252525"/><path d="M32.49014,11.05707h-3.06a.48154.48154,0,0,1-.502-.458V7.2685a.48155.48155,0,0,1,.502-.45806h3.06a.48153.48153,0,0,1,.50194.45806v3.33057A.48152.48152,0,0,1,32.49014,11.05707Zm-2.558-.916h2.056V7.7265h-2.056Z" fill="#252525"/><polygon points="10.761 3.273 29.43 3.273 29.43 16.562 28.604 19.435 26.172 22.34 21.952 24.449 19.405 24.449 16.323 24.037 13.643 22.34 11.699 20.169 10.391 15.461 10.391 9.967 10.761 3.273" fill="#f2b705"/><path d="M29.43,2.99814H10.56917a.48144.48144,0,0,0-.50174.45781v12.4337A8.89008,8.89008,0,0,0,14.554,23.46471a9.90331,9.90331,0,0,0,.95211.50547c.01713.00859.03425.01641.05223.02344a10.52378,10.52378,0,0,0,3.23908.89219,10.92125,10.92125,0,0,0,2.40512,0,10.53893,10.53893,0,0,0,3.23908-.89219c.01712-.007.0351-.01485.05223-.02344a9.90331,9.90331,0,0,0,.95211-.50547,8.8911,8.8911,0,0,0,4.48574-7.57506V3.456A.48091.48091,0,0,0,29.43,2.99814ZM24.44164,22.95455a9.447,9.447,0,0,1-3.30073,1.01563,9.80476,9.80476,0,0,1-1.14134.06641c-.15583,0-.31166-.00391-.46578-.01172h-.00172c-.22689-.01016-.45208-.02891-.67384-.05469a9.448,9.448,0,0,1-3.29987-1.01563,8.91764,8.91764,0,0,1-1.00434-.61407,8.026,8.026,0,0,1-3.39919-5.34223v-.00078a7.39618,7.39618,0,0,1-.08306-1.10782V3.91377H28.92823V15.88965a7.46946,7.46946,0,0,1-.0822,1.1047,7.88244,7.88244,0,0,1-2.53612,4.65316,8.78807,8.78807,0,0,1-.86393.693A8.95644,8.95644,0,0,1,24.44164,22.95455Z" fill="#252525"/><rect x="13.51551" y="7.2685" width="13.15827" height="5.3964" fill="#fff"/><path d="M26.67378,13.1229H13.51551a.48152.48152,0,0,1-.50194-.458V7.2685a.48153.48153,0,0,1,.50194-.45806H26.67378a.48153.48153,0,0,1,.50194.45806v5.3964A.48152.48152,0,0,1,26.67378,13.1229Zm-12.65624-.916h12.1543V7.7265H14.01754Z" fill="#252525"/></svg>